<?xml version="1.0" encoding="UTF-8" standalone="no"?>
<!-- Created with Inkscape (http://www.inkscape.org/) -->

<svg
   xmlns:dc="http://purl.org/dc/elements/1.1/"
   xmlns:cc="http://creativecommons.org/ns#"
   xmlns:rdf="http://www.w3.org/1999/02/22-rdf-syntax-ns#"
   xmlns:svg="http://www.w3.org/2000/svg"
   xmlns="http://www.w3.org/2000/svg"
   xmlns:sodipodi="http://sodipodi.sourceforge.net/DTD/sodipodi-0.dtd"
   xmlns:inkscape="http://www.inkscape.org/namespaces/inkscape"
   width="88.305801mm"
   height="42.847446mm"
   viewBox="0 0 312.89457 151.82166"
   id="svg2"
   version="1.1"
   inkscape:version="0.91 r13725"
   sodipodi:docname="logo_sml.svg">
  <defs
     id="defs4" />
  <sodipodi:namedview
     id="base"
     pagecolor="#999999"
     bordercolor="#666666"
     borderopacity="1.0"
     inkscape:pageopacity="0.0"
     inkscape:pageshadow="2"
     inkscape:zoom="0.35"
     inkscape:cx="1260.0107"
     inkscape:cy="-610.74466"
     inkscape:document-units="px"
     inkscape:current-layer="layer2"
     showgrid="false"
     inkscape:window-width="1680"
     inkscape:window-height="991"
     inkscape:window-x="1600"
     inkscape:window-y="30"
     inkscape:window-maximized="1"
     fit-margin-top="0"
     fit-margin-left="0"
     fit-margin-right="0"
     fit-margin-bottom="0" />
  <metadata
     id="metadata7">
    <rdf:RDF>
      <cc:Work
         rdf:about="">
        <dc:format>image/svg+xml</dc:format>
        <dc:type
           rdf:resource="http://purl.org/dc/dcmitype/StillImage" />
        <dc:title></dc:title>
      </cc:Work>
    </rdf:RDF>
  </metadata>
  <g
     inkscape:groupmode="layer"
     id="layer2"
     inkscape:label="Layer 2"
     transform="translate(-41.26243,-53.242529)">
    <g
       transform="matrix(0.12528383,0,0,0.12528383,120.41251,51.860237)"
       id="g3660">
      <path
         style="fill:#6596ad"
         d="m 221.57144,1222.6525 c -50.7308,-1.955 -87.10239,-5.3084 -116.68417,-10.7582 -22.872953,-4.2138 -42.264695,-11.509 -51.84083,-19.5026 -3.676113,-3.0687 -4.275,-4.0316 -4.275,-6.8737 0,-1.8178 0.962127,-5.1213 2.138058,-7.3412 1.826595,-3.4481 3.261474,-4.626 9.849879,-8.086 8.407665,-4.4154 12.312063,-7.5679 12.312063,-9.9406 0,-1.2392 -1.229517,-1.6422 -6.525,-2.1385 -16.143588,-1.5135 -58.545864,-6.281 -85.275,-9.5881 -110.30673,-13.6477 -197.91792,-30.7541 -274.05,-53.5091 -117.04156,-34.9825 -206.7308,-87.0344 -260.48339,-151.17375 -43.77573,-52.23465 -67.66561,-109.07406 -76.22222,-181.35 -1.97673,-16.69707 -2.28957,-23.05176 -2.28182,-46.35 0.0177,-53.30524 5.1943,-77.54023 19.75254,-92.475 2.29198,-2.35125 4.7316,-4.275 5.42139,-4.275 0.68979,0 4.95751,3.38064 9.48383,7.51255 25.67226,23.4352 68.02265,54.57671 94.43035,69.43745 5.62099,3.16318 9.60693,5.97479 9.62259,6.78761 0.0147,0.76319 -1.81427,3.19319 -4.06438,5.4 -5.46189,5.35679 -12.25739,15.32072 -15.16622,22.23754 -9.06295,21.55052 -7.30782,47.95499 4.75095,71.47385 4.58689,8.94605 9.62041,15.83083 17.55003,24.00464 14.37123,14.81382 28.91184,20.47356 39.84512,15.5092 4.93173,-2.2393 10.46681,-9.35358 12.8118,-16.46709 1.86675,-5.66281 3.67386,-18.32055 3.69706,-25.89575 0.0129,-4.19818 1.19132,-9.38605 2.64901,-11.66155 0.50581,-0.78958 2.56404,-1.39827 5.17177,-1.52946 2.38237,-0.11985 4.58867,-0.2384 4.90289,-0.26345 0.31421,-0.025 0.8441,-2.37429 1.17753,-5.22054 3.07031,-26.20937 19.07824,-56.1583 39.8191,-74.49681 29.78468,-26.3348 65.97449,-42.197 110.08207,-48.24962 11.69179,-1.60439 39.56364,-1.41028 50.7032,0.35313 10.17243,1.61031 11.95018,2.78571 15.02552,9.93454 3.78069,8.78845 3.06688,20.01943 -1.60034,25.17966 -1.43647,1.58821 -1.57665,4.34617 -1.55917,30.67461 0.015,22.66597 0.36981,31.56008 1.63859,41.07949 8.61664,64.64909 35.86006,109.1277 92.49266,151.00686 19.901797,14.71716 43.366669,29.0997 97.99954,60.06771 39.226446,22.23504 52.156134,29.78168 72.551403,42.34608 48.857297,30.0981 92.195407,61.9727 129.880877,95.5259 l 9.38229,8.3535 5.01771,0.01 c 2.75975,0 12.51022,0.5897 21.66772,1.3033 47.26206,3.6827 124.25058,4.1377 166.05,0.9814 86.62023,-6.5408 161.35956,-20.4435 238.25799,-44.3196 l 24.95808,-7.7492 4.29192,3.965 c 2.36061,2.1808 5.60835,5.0523 7.21728,6.3811 5.61681,4.6394 5.55786,7.9736 -0.32787,18.5607 -9.96822,17.9306 -24.63066,34.8687 -40.3974,46.6675 -23.52393,17.6036 -59.09868,34.1307 -96.3,44.7383 -53.32635,15.2056 -111.00132,23.9508 -188.1,28.5217 -15.6132,0.9256 -101.76633,1.81 -117.45,1.2055 z m 448.86942,-59.2209 c -3.06873,-3.0688 -3.11229,-18.7607 -0.081,-29.2748 1.9917,-6.9085 7.88391,-18.4125 12.51378,-24.4317 16.61301,-21.5981 50.64993,-41.6329 98.32563,-57.8764 24.28722,-8.2748 37.02726,-11.7641 38.29707,-10.4889 1.46088,1.4672 1.08387,11.2817 -0.65808,17.131 -4.71015,15.8166 -21.76092,38.3535 -38.93517,51.4622 -7.63038,5.8241 -49.05504,29.1678 -72.98748,41.1299 -23.77467,11.8834 -33.61005,15.2132 -36.47448,12.3487 z M 283.22144,1109.783 c -18.1908,-1.127 -36.69633,-3.3564 -51.39873,-6.192 l -12.83082,-2.4747 -5.94864,-5.3377 c -20.71119,-18.5845 -41.47094,-34.5176 -65.27181,-50.0964 -22.31923,-14.609 -35.30385,-22.3678 -83.25,-49.74532 -64.731033,-36.96183 -82.159362,-47.43585 -115.2,-69.23268 -30.271365,-19.96992 -65.15253,-45.53901 -75.46851,-55.32102 -17.03073,-16.14926 -33.15483,-45.02884 -41.00449,-73.44243 -4.82687,-17.47188 -6.54308,-29.69035 -7.04338,-50.14493 -1.02339,-41.84041 7.00862,-77.17095 25.53134,-112.30507 26.84749,-50.92468 69.034056,-82.11126 124.98504,-92.3957 13.53978,-2.48876 46.327383,-2.28961 65.318688,0.39676 84.119122,11.89885 148.070772,55.38492 211.400622,143.74894 8.51274,11.87774 26.88201,39.45547 34.47063,51.75037 2.29149,3.7127 7.46802,10.5977 11.50344,15.3 4.03533,4.70229 11.23632,13.61213 16.00218,19.79963 24.74154,32.12193 28.04274,35.78895 63.71055,70.77057 19.24668,18.87627 37.82889,36.83226 41.29389,39.90216 7.9947,7.083 24.87987,19.6758 35.21772,26.26506 9.20016,5.86413 21.69216,16.72821 45.59121,39.65022 36.85716,35.3502 91.04229,94.40664 95.40522,103.98244 0.85104,1.8676 0.63783,2.4167 -1.66932,4.3005 -1.45467,1.1878 -6.81192,4.0011 -11.90511,6.2519 -42.06555,18.5897 -135.31419,37.0806 -217.98972,43.2267 -22.82166,1.6966 -64.61766,2.3855 -81.45,1.3427 z m 570.31866,-21.4842 c -14.82858,-4.3965 -20.88216,-17.6909 -16.8291,-36.9586 2.82411,-13.425 7.69221,-19.0479 23.56452,-27.2183 10.36566,-5.3357 16.53939,-7.5882 29.54592,-10.7797 7.35156,-1.804 10.55322,-1.9987 34.65,-2.107 28.71828,-0.1293 30.49182,-0.3126 62.1,-6.4188 25.25206,-4.87848 37.71526,-4.4804 47.15456,1.5058 3.6557,2.3183 8.6454,8.4858 8.6454,10.6858 0,0.9701 -11.2833,7.2826 -40.5,22.6583 -74.08166,38.9863 -124.79081,55.612 -148.3313,48.6325 z m -237.03219,-29.5166 c -1.2564,-0.3319 -4.40541,-6.6346 -7.71111,-15.434 -1.35864,-3.6164 -9.04851,-15.5567 -14.01246,-21.7574 -7.88733,-9.8526 -14.12856,-16.1354 -35.7129,-35.95082 -21.3831,-19.63062 -31.97475,-30.81393 -31.16988,-32.91129 0.97146,-2.53161 27.85203,-1.55385 64.01988,2.32857 58.19274,6.24672 112.10256,19.21158 144,34.63065 20.98431,10.14372 31.98924,20.17399 35.14563,32.03249 1.76868,6.6449 1.63008,9.3709 -0.71469,14.0661 -6.28389,12.582 -29.03796,19.9989 -69.51555,22.659 -13.73814,0.9028 -81.16623,1.1721 -84.32892,0.3367 z m 177.91353,-42.4645 c -4.09176,-2.5252 -11.0709,-10.3671 -18.13527,-20.37695 -24.5691,-34.81362 -35.86671,-54.32211 -39.86136,-68.83191 -2.42253,-8.79939 -2.36583,-10.29573 0.43902,-11.57364 9.11142,-4.15143 37.6965,5.09499 63.40761,20.51055 24.05097,14.42016 39.29454,29.22318 47.82915,46.44666 4.6656,9.41562 5.21127,13.34178 2.42334,17.43534 -4.13937,6.07775 -22.38507,13.73505 -39.79539,16.70135 -10.35342,1.7639 -13.02723,1.7127 -16.3071,-0.3114 z m 91.28547,-21.4646 c -0.79434,-0.18675 -3.74598,-5.32818 -6.73155,-11.72574 -9.68166,-20.74608 -22.55049,-38.63034 -36.90459,-51.2874 -17.72721,-15.63138 -37.66248,-24.76161 -70.14933,-32.12775 -37.57176,-8.51904 -45.12348,-10.69092 -55.8,-16.04781 -13.82715,-6.93783 -22.14,-14.11146 -29.18952,-25.18956 -4.91112,-7.71759 -4.56489,-8.78409 2.85165,-8.78409 15.39603,0 50.32197,3.10606 70.88787,6.30423 66.08376,10.27665 121.14252,31.70592 162.91368,63.40725 12.35358,9.37548 29.42712,26.66277 37.90584,38.38032 6.74055,9.31536 16.08048,24.86565 16.08048,26.77284 0,1.48833 -2.61828,1.80675 -18.45,2.2437 -10.143,0.27999 -22.11579,1.48329 -40.5,4.07052 -31.67253,4.45734 -31.16178,4.39551 -32.91453,3.98349 z m 134.16449,-10.58391 c -1.2375,-0.68724 -7.6582,-7.12701 -14.2681,-14.31054 -17.28541,-18.78516 -47.33668,-48.12669 -60.51889,-59.08959 -37.96974,-31.57704 -75.12147,-50.81418 -118.91457,-61.57375 -25.353,-6.22899 -38.20473,-8.08585 -75.3984,-10.89382 -43.70031,-3.29918 -56.90853,-6.89049 -92.44656,-25.13624 -31.25817,-16.04839 -38.31588,-21.04291 -60.10344,-42.53322 -16.06527,-15.84612 -20.30832,-18.93799 -35.24589,-25.6836 -17.6571,-7.97365 -23.34366,-9.01618 -72.3429,-13.26265 -98.23248,-8.51322 -145.41984,-18.28296 -187.86753,-38.89635 -37.16433,-18.04772 -58.39092,-41.27189 -66.85677,-73.14846 -1.30716,-4.92207 -1.43406,-6.52048 -0.57996,-7.30899 1.59021,-1.46826 23.1453,-6.43717 32.59305,-7.51344 13.0545,-1.48712 31.9383,-1.12276 44.55,0.85959 31.8465,5.00573 63.07281,18.06524 107.26866,44.86205 8.07471,4.89587 23.40783,14.19354 34.07364,20.66152 32.36238,19.62537 51.65298,28.93696 72.8577,35.16852 14.61528,4.29508 60.57909,14.30007 139.05,30.26718 55.70928,11.33561 61.09983,12.59705 78.56712,18.38554 17.0802,5.66018 34.42635,12.67815 68.58288,27.74753 57.49641,25.36658 78.88689,33.28996 110.95596,41.09983 33.73425,8.21541 51.98742,9.9684 95.144,9.13741 71.7719,-1.38199 164.4317,8.46885 219.6,23.3461 4.7025,1.26812 10.0688,2.71079 11.925,3.20597 2.4615,0.65664 3.375,1.38303 3.375,2.68362 0,2.10726 -6.7156,15.72822 -11.3923,23.10669 -20.8861,32.95143 -60.2344,57.03534 -123.1577,75.38103 -12.6071,3.6756 -95.2831,24.81912 -96.6751,24.72363 -0.2887,-0.0198 -1.5374,-0.59832 -2.7749,-1.28556 z m -297.69413,-17.1837 c -22.10157,-10.3257 -51.29694,-17.31411 -114.50583,-27.40878 -19.0575,-3.04353 -41.01165,-6.71751 -48.78693,-8.16444 -70.29702,-13.08132 -111.42846,-32.87682 -138.63807,-66.72303 l -4.275,-5.31774 0,-8.38016 c 0,-6.69659 0.29898,-8.62834 1.48806,-9.61539 2.03175,-1.6865 67.48893,-1.75313 84.46194,-0.086 46.24236,4.54212 84.01491,12.85612 116.55,25.6535 55.02186,21.64221 90.16443,51.45417 108.22113,91.80531 3.8934,8.70048 4.56858,11.59614 2.65077,11.36799 -0.34209,-0.0405 -3.56679,-1.44981 -7.16607,-3.13128 z M 623.42144,849.11241 c -6.93,-1.20263 -26.5725,-4.82938 -43.65,-8.05944 -93.78972,-17.73953 -118.63827,-20.90674 -169.65,-21.62367 -17.325,-0.24349 -32.38911,-0.62394 -33.47586,-0.84546 -1.7379,-0.35422 -22.1427,-24.92248 -37.45521,-45.09767 -4.73094,-6.23341 -17.71893,-26.8628 -17.71893,-28.14388 0,-1.26145 2.19429,-1.71234 13.95,-2.8665 15.85935,-1.55706 53.05212,-1.30201 69.42258,0.47606 79.74036,8.66098 153.19656,37.12015 206.87742,80.15062 10.1979,8.17462 27.45,24.60151 27.45,26.137 0,0.91538 -2.32155,2.58415 -2.99862,2.15541 -0.0828,-0.0527 -5.82138,-1.07983 -12.75138,-2.28247 z m -1093.95,-37.16508 c -17.39059,-5.32305 -26.99531,-22.80348 -26.98187,-49.10658 0.006,-13.08207 2.20961,-24.78289 6.12692,-32.54304 2.30018,-4.55663 3.37837,-5.72094 6.42758,-6.941 6.5895,-2.6366 13.82309,-1.33991 20.49651,3.67418 5.12053,3.84732 7.17585,6.45649 10.50478,13.33546 6.04727,12.49623 6.48087,23.41058 1.87608,47.2244 -1.7325,8.95969 -3.15,17.65859 -3.15,19.33089 0,4.48999 -1.90956,5.88303 -7.93929,5.79176 -2.81089,-0.0426 -6.12321,-0.38727 -7.36071,-0.76607 z m 1481.44996,-7.84316 c -4.1801,-0.61543 -14.71006,-1.55568 -23.40001,-2.08944 -8.68995,-0.53376 -18.83745,-1.38866 -22.54995,-1.89976 -13.87764,-1.91052 -27,-6.53878 -27,-9.52289 0,-3.28566 18.17559,-35.21613 30.9096,-54.30133 43.75316,-65.57529 101.22276,-127.51723 194.54036,-209.6799 28.2571,-24.87926 36.8151,-32.88174 70.1858,-65.63006 16.3428,-16.03798 35.3893,-34.46548 42.3255,-40.95 40.7281,-38.076 94.9194,-80.15329 164.6887,-127.874 14.355,-9.81851 29.1375,-20.09529 32.85,-22.83729 15.042,-11.10978 32.39,-23.16679 40.9184,-28.43872 4.9674,-3.07064 18.3466,-11.6529 29.7316,-19.07167 45.9581,-29.9475 84.5218,-51.49555 121.05,-67.63838 64.638,-28.56538 104.1324,-42.55002 136.8,-48.43989 12.2463,-2.20796 31.7236,-2.20149 40.5,0.0134 10.9625,2.76664 23.978,10.40823 23.2162,13.6305 -0.428,1.80984 -21.0707,12.13787 -28.0631,14.0406 -17.4871,4.75845 -29.0871,9.35457 -46.564,18.44936 -27.5083,14.31494 -54.2338,31.7509 -107.4391,70.09412 -64.2273,46.28645 -228.538,168.08849 -274.5,203.48431 -73.2096,56.37957 -148.0548,119.0551 -208.35,174.47257 -32.8107,30.15648 -93.4444,89.86317 -109.7021,108.02502 -15.4626,17.27351 -34.2869,42.74116 -59.2808,80.20176 -5.9821,8.96597 -11.4144,16.477 -12.0719,16.69119 -0.6573,0.21418 -4.6152,-0.1141 -8.7952,-0.72953 z M 867.15494,773.21429 c -9.75825,-1.4903 -25.28208,-7.189 -60.1335,-22.07462 -18.58491,-7.93792 -45.95904,-21.00712 -49.94424,-23.84479 -1.59669,-1.13698 -2.70396,-2.73159 -2.70144,-3.89041 0.009,-2.9145 23.57775,-38.8254 39.99807,-60.93687 38.31696,-51.59722 84.08457,-101.35363 162.49761,-176.65983 18.0675,-17.35164 53.50496,-52.04736 78.74996,-77.10162 51.1045,-50.71831 61.7227,-60.99479 83.25,-80.57077 54.7397,-49.77776 86.505,-74.36834 157.1355,-121.64386 93.0611,-62.28911 235.9043,-150.777645 266.7036,-165.2176 43.5902,-20.436833 89.5936,-31.7971823 121.7602,-30.068173 24.741,1.329871 44.6592,8.951069 59.0843,22.607154 5.8003,5.4911 14.5164,17.313143 14.5164,19.689215 0,0.772524 -3.5308,2.838195 -8.775,5.133681 -61.3898,26.871732 -107.4912,51.635003 -165.0232,88.641783 -72.078,46.36328 -192.19,130.86923 -245.8554,172.97385 -68.3909,53.65791 -181.506,157.71621 -235.3935,216.54615 -58.7634,64.15319 -130.75879,153.38332 -172.37641,213.64117 -3.83589,5.5539 -9.01566,11.88371 -11.51055,14.06625 -7.94331,6.9486 -20.7234,10.4288 -31.9824,8.70929 z m -160.0335,-59.97415 c -2.97,-0.71536 -12.0825,-3.48572 -20.25,-6.15634 -8.1675,-2.67063 -16.70679,-5.12503 -18.97614,-5.45423 -6.84891,-0.99352 -6.79635,-0.84084 -4.05684,-11.77354 6.13872,-24.49835 19.78947,-52.27304 39.105,-79.56528 16.64919,-23.5247 35.62344,-45.13713 73.05651,-83.21422 14.61816,-14.86968 33.29163,-34.32578 41.49648,-43.23578 14.13963,-15.35483 36.96498,-37.84261 85.82499,-84.55594 11.88,-11.35805 34.45155,-33.41377 50.15898,-49.01273 l 28.55907,-28.36173 3.84093,1.14074 c 11.99592,3.56269 16.87418,3.60464 26.57348,0.22847 11.9188,-4.14871 21.363,-10.89203 46.1175,-32.92875 22.23,-19.78927 32.5653,-26.97864 43.6253,-30.34629 5.4287,-1.65297 7.0072,-1.78444 11.7,-0.97447 3.2215,0.55601 7.2802,2.09355 9.9931,3.78569 4.868,3.03617 11.5227,10.86931 11.0288,12.98159 -0.1634,0.6991 -12.6497,12.3218 -27.7472,25.82822 -141.85589,126.90612 -262.89212,254.02744 -364.76267,383.10118 -26.63811,33.75146 -23.6304,31.32111 -35.28729,28.51341 z m -104.85,-24.7668 c -4.2075,-1.45039 -20.0025,-5.6898 -35.1,-9.42092 -49.96359,-12.34776 -65.38563,-17.20913 -82.93131,-26.14185 -11.28708,-5.74637 -16.52382,-10.07451 -20.06766,-16.58565 -6.71211,-12.33238 -1.92978,-23.76415 25.53255,-61.0337 15.77565,-21.40942 21.44718,-34.70853 22.30569,-52.30505 0.55845,-11.4451 -0.69048,-19.12731 -4.72293,-29.05139 -2.72754,-6.71252 -2.72781,-6.89452 -0.0162,-12.24565 6.08733,-12.01278 13.32837,-15.34929 22.84533,-10.52667 6.27606,3.18029 12.32595,9.00227 25.29648,24.34349 17.43201,20.61814 19.55574,22.07008 32.2956,22.07978 12.4695,0.01 22.47849,-5.8767 44.95329,-26.4368 12.85614,-11.76092 17.18199,-14.97331 23.31936,-17.31721 5.99949,-2.29121 10.47573,-0.59023 14.45049,5.49125 8.15211,12.4729 12.85848,41.6013 10.19295,63.08553 -3.9879,32.14223 -15.82569,60.44824 -46.71153,111.6939 -8.38908,13.91905 -16.74774,27.98059 -18.57492,31.24786 -1.82718,3.26727 -3.7935,5.89991 -4.36968,5.85031 -0.57609,-0.0496 -4.49001,-1.27685 -8.69751,-2.72723 z m -1072.8,-12.06547 c -19.54234,-5.34423 -63.03732,-33.80151 -105.3,-68.89418 -14.59673,-12.12034 -14.76015,-12.33633 -15.1482,-20.0208 -0.28911,-5.72529 0.0477,-7.48646 2.78877,-14.58412 14.41561,-37.32674 42.29075,-73.22179 72.90455,-93.87977 12.04767,-8.12968 32.23673,-17.11864 45.84963,-20.41405 16.30928,-3.94815 41.9929,-5.12986 57.35305,-2.63883 28.7036,4.65501 49.69938,21.57655 57.46592,46.31463 2.03008,6.46625 3.40677,17.1 2.21384,17.1 -0.41902,0 -4.59037,-0.87609 -9.2697,-1.94686 -12.8653,-2.94397 -28.15876,-2.77626 -39.91123,0.4377 -15.86624,4.33893 -25.18152,11.90665 -37.89929,30.78931 -12.81026,19.02002 -19.3438,37.30947 -19.34618,54.15613 -9e-4,6.69811 0.63316,10.66553 3.30839,20.7 3.154,11.83026 3.31262,13.11169 3.375,27.26372 0.0696,15.79092 -0.9975,21.23227 -4.84704,24.71605 -2.36756,2.14262 -7.69971,2.49753 -13.53751,0.90107 z m 58.24827,-3.49878 c -5.32888,-1.54287 -9.8707,-4.93306 -13.05487,-9.74465 -2.31906,-3.50435 -2.4405,-4.24463 -2.53479,-15.45218 -0.0805,-9.57391 -0.45033,-12.70792 -1.98082,-16.78746 -4.70701,-12.5466 -4.26138,-30.07307 1.18077,-46.43839 4.56034,-13.71365 9.8407,-23.54065 19.66392,-36.59556 4.55969,-6.05977 4.67765,-6.14196 8.04733,-5.6072 4.73432,0.75131 19.11426,5.41702 29.88019,9.6949 41.33846,16.426 68.4206,39.13004 77.2746,64.78239 1.27888,3.70527 2.58443,8.94211 2.90122,11.63745 0.57191,4.86614 0.55,4.92406 -3.11474,8.23494 -10.04959,9.07921 -58.54457,29.25767 -83.81108,34.87327 -10.93618,2.43062 -28.43966,3.14317 -34.45173,1.40249 z m 816.55173,-63.96721 c -12.06297,-2.43269 -24.93486,-6.09536 -49.23288,-14.0092 -44.05194,-14.34764 -61.97787,-17.9425 -89.36712,-17.92164 -14.01462,0.0107 -21.2589,0.66673 -35.21061,3.1887 -2.1051,0.38053 -3.49118,0.21623 -3.91135,-0.46362 -0.88849,-1.4376 5.77552,-15.07237 11.76934,-24.0806 25.21251,-37.89205 73.35414,-81.83674 108.80262,-99.31736 15.73254,-7.75812 28.26117,-10.41566 59.55093,-12.63177 39.53898,-2.80037 63.54351,5.60318 73.1718,25.61608 8.44794,17.55965 8.16597,39.31387 -0.98163,75.71828 -3.87891,15.43679 -6.59511,22.9494 -12.36447,34.19828 -8.48709,16.54797 -19.71504,26.20081 -34.54236,29.69671 -6.82488,1.60913 -19.72125,1.61199 -27.68427,0.006 z m -75.15,-166.87847 c -16.93044,-6.92614 -37.01394,-21.33644 -53.59077,-38.45246 -24.66396,-25.4661 -39.39777,-52.74048 -42.42384,-78.53253 -3.25656,-27.75606 10.88541,-51.1746 39.7242,-65.78168 6.44652,-3.26527 23.05863,-8.67414 34.24041,-11.14865 19.64871,-4.34824 50.83911,-7.30715 53.52543,-5.07775 1.0359,0.85971 1.37844,3.05412 1.39023,8.90561 0.0378,18.72346 4.79412,28.80402 18.57798,39.37314 l 2.48877,1.90833 -6.26616,4.064 c -10.68903,6.93246 -17.72343,15.5697 -19.22463,23.60527 -2.18457,11.69347 2.85489,24.21903 20.74275,51.55611 17.44722,26.66373 21.21246,37.54181 17.41752,50.32082 -2.21166,7.44739 -3.90051,8.93107 -10.99161,9.65599 -9.42237,0.96325 -22.023,3.91568 -35.28774,8.2682 -6.64263,2.17962 -12.51513,3.95168 -13.05,3.93791 -0.53487,-0.0138 -3.80754,-1.1848 -7.27254,-2.60231 z m 74.01105,-64.9519 c -11.1177,-2.6193 -20.8476,-12.45614 -31.96935,-32.32076 l -2.77146,-4.95 2.64969,-8.22455 c 4.35231,-13.50952 13.12515,-25.28761 23.53437,-31.59621 8.00136,-4.84938 24.35445,-8.17447 26.57844,-5.40424 0.4968,0.61875 1.18647,4.77 1.53261,9.225 0.34614,4.455 1.05525,9.9225 1.57572,12.15 1.39482,5.96991 5.83731,13.47928 10.29078,17.39503 2.15496,1.89476 3.91815,3.99431 3.91815,4.66565 0,0.67134 -2.23002,4.18358 -4.95558,7.80498 -5.47398,7.27299 -8.90937,15.29635 -10.27593,23.99933 -0.49365,3.14324 -1.368,6.28199 -1.94319,6.975 -1.19691,1.44221 -12.49335,1.61682 -18.16425,0.28077 z m 46.29384,-51.70239 c -6.20064,-5.57492 -10.9944,-15.1479 -11.54907,-23.0631 -0.54828,-7.82305 0.18522,-8.69972 5.56083,-6.64673 9.4203,3.59764 14.89977,12.03813 14.74362,22.71073 -0.1755,11.99313 -1.77687,13.27332 -8.75538,6.9991 z m -60.80859,-45.50344 c -1.31814,-1.0368 -3.14577,-3.36555 -4.06143,-5.175 -1.99188,-3.93588 -6.83829,-24.28652 -5.98653,-25.13824 0.94365,-0.94371 7.65243,3.00294 13.55166,7.9722 2.97,2.50182 6.16041,5.16892 7.08975,5.9269 3.74733,3.05624 -1.33911,18.29921 -6.10632,18.29921 -1.14984,0 -3.16908,-0.84828 -4.48713,-1.88507 z"
         id="path3674"
         inkscape:connector-curvature="0" />
      <path
         style="fill:#f48220"
         d="m 209.20373,1220.484 c -37.90852,-1.5592 -66.01968,-4.102 -95.53308,-8.6412 -28.875675,-4.441 -47.544267,-10.7737 -59.2131,-20.0859 -4.427964,-3.5337 -4.63779,-3.8912 -4.148037,-7.069 1.085301,-7.042 4.537305,-10.7592 13.763421,-14.8207 2.723328,-1.1988 6.267078,-3.678 7.875,-5.5094 5.115672,-5.8264 3.877803,-7.2759 -6.976494,-8.1693 -12.868497,-1.0593 -70.116237,-7.5359 -96.266763,-10.8911 -145.333677,-18.6467 -252.594277,-43.671 -339.333237,-79.1677 -76.75858,-31.4124 -140.99757,-74.88407 -180.83438,-122.37365 -44.18504,-52.67313 -67.75342,-108.19163 -76.22793,-179.5653 -1.98782,-16.74177 -2.30139,-23.11069 -2.32635,-47.25 -0.0457,-44.21915 2.80185,-65.59167 10.77056,-80.83915 3.54282,-6.77887 10.42352,-15.01085 12.54683,-15.01085 0.74906,0 5.06528,3.38065 9.5916,7.51255 25.49659,23.27485 64.20176,51.83123 91.70467,67.65901 5.81625,3.34721 10.575,6.55324 10.575,7.1245 0,0.57124 -1.6581,2.63958 -3.68466,4.59629 -8.64953,8.35138 -16.20953,22.05983 -19.38698,35.15419 -2.41344,9.94582 -2.03182,26.54874 0.86237,37.51803 5.12334,19.41809 14.01861,34.66909 28.19203,48.33543 9.67093,9.32494 15.03135,12.69544 23.73828,14.92605 9.12226,2.33701 16.61217,0.16836 22.47317,-6.50695 6.26921,-7.14023 9.26738,-17.41874 10.64581,-36.49653 0.44734,-6.19133 1.23837,-11.10309 1.92051,-11.925 0.78147,-0.94162 2.71551,-1.39757 5.92816,-1.39757 5.32609,0 5.08336,0.36399 6.30185,-9.45 2.89928,-23.35181 17.50384,-50.96438 36.30925,-68.64929 28.37619,-26.68539 66.21325,-43.83758 109.90021,-49.81962 16.83526,-2.30525 55.66158,-1.04516 61.33387,1.99055 0.88531,0.47381 2.71082,2.74047 4.05669,5.03701 1.98438,3.38611 2.52111,5.58678 2.83881,11.63977 0.37651,7.17359 0.27358,7.66739 -2.64381,12.6829 l -3.03556,5.21868 0.0184,27.45 c 0.0197,29.52794 1.05976,41.37367 5.45243,62.1 5.18176,24.44963 16.44815,51.81503 29.15306,70.81111 13.50548,20.19311 35.35906,42.03314 61.29603,61.25804 18.802175,13.93659 40.908992,27.45738 95.330165,58.30542 19.0575,10.80252 39.96063,22.76766 46.451403,26.58928 63.310779,37.2754 114.547912,73.7891 158.680882,113.0827 l 9.38228,8.3535 5.91772,0.01 c 3.25474,0 13.41022,0.5897 22.56772,1.3033 47.14947,3.6739 120.71519,4.1159 162.45,0.9761 86.19426,-6.4847 165.64517,-21.3154 241.7723,-45.1307 11.69982,-3.66 21.70972,-6.6547 22.24422,-6.6547 0.53451,0 4.22568,2.872 8.20269,6.3821 8.55603,7.5518 8.78418,8.5402 4.03749,17.4877 -9.66897,18.2258 -24.68807,35.9825 -40.50243,47.8848 -55.0215,41.4109 -146.06927,65.0319 -282.10428,73.1878 -20.65859,1.2385 -108.83249,1.8067 -132.0677,0.8509 z m 460.96443,-61.685 c -0.87003,-5.8019 0.15219,-20.5343 1.79226,-25.8301 0.72765,-2.3495 3.24252,-8.0195 5.58846,-12.6 3.6612,-7.1484 5.73921,-9.8039 14.66901,-18.7454 6.76539,-6.7743 13.39353,-12.3783 18.95355,-16.025 9.60687,-6.301 29.78649,-16.7493 44.30547,-22.9398 19.01943,-8.1095 59.64309,-21.0791 62.541,-19.9671 1.1826,0.4538 1.32183,1.6327 0.85077,7.2051 -1.30941,15.4909 -10.46754,31.1697 -28.79685,49.3004 -10.34289,10.2309 -14.42232,13.0315 -39.75039,27.2894 -38.42469,21.6303 -66.74841,35.3117 -74.8521,36.1562 l -4.6521,0.4848 -0.64908,-4.3285 z m -388.29672,-50.8461 c -17.79471,-1.1085 -34.88652,-3.1498 -50.07357,-5.9804 l -12.72361,-2.3716 -8.42641,-7.6295 c -17.66011,-15.99 -37.9353,-31.4224 -62.00837,-47.198 -22.21164,-14.5557 -35.18496,-22.3094 -83.21804,-49.73652 -90.569619,-51.7158 -128.315898,-75.80124 -174.6,-111.40992 -13.74759,-10.57671 -18.72067,-15.15645 -25.23271,-23.23692 -17.92211,-22.23877 -29.77023,-49.60755 -35.60625,-82.24929 -3.64849,-20.40661 -3.38499,-54.49744 0.60087,-77.73933 7.65918,-44.66133 30.93922,-88.91814 60.47131,-114.95975 24.952875,-22.00361 50.634654,-34.34626 84.36678,-40.54662 13.628781,-2.50512 48.078477,-2.30286 67.118688,0.39408 76.579052,10.84696 134.690512,47.14779 192.662532,120.35162 14.52501,18.34136 36.41337,49.95507 51.40872,74.25037 2.29149,3.7127 7.46802,10.5977 11.50344,15.3 4.03533,4.70229 11.23632,13.61213 16.00218,19.79963 24.74154,32.12193 28.04274,35.78895 63.71055,70.77057 19.24668,18.87627 37.82889,36.83226 41.29389,39.90216 7.9947,7.083 24.87987,19.6758 35.21772,26.26506 9.20016,5.86413 21.69216,16.72821 45.59121,39.65022 38.45178,36.87966 95.1579,98.97184 95.13495,104.17104 -0.01,2.1423 -5.12532,5.1546 -16.78941,9.8857 -43.89948,17.8064 -133.6644,35.1131 -212.70447,41.0096 -22.92741,1.7104 -66.34503,2.3888 -83.7,1.3078 z m 570.89925,-21.4281 c -10.10727,-3.4928 -14.66838,-9.8411 -15.41358,-21.4528 -0.59769,-9.3124 1.24506,-19.0965 4.67334,-24.8141 5.97609,-9.9668 24.34266,-19.7972 47.79099,-25.5794 5.18247,-1.278 11.00979,-1.5733 32.85,-1.6646 28.77966,-0.1203 30.83292,-0.3327 62.1,-6.4253 13.05783,-2.5445 18.97996,-3.2627 27.44996,-3.3289 11.7959,-0.092 15.6276,0.7711 21.6369,4.875 3.2985,2.2526 7.6812,8.3356 6.6736,9.2628 -1.4784,1.3605 -46.32009,25.0002 -63.41046,33.4288 -41.18913,20.3134 -72.33489,32.0797 -95.2929,35.9997 -10.90134,1.8614 -23.16789,1.7342 -29.05785,-0.3012 z m -236.81043,-30.059 c -0.51237,-0.6188 -2.21706,-4.365 -3.78819,-8.325 -7.92801,-19.9825 -20.31183,-34.734 -57.25215,-68.19881 -12.14343,-11.00097 -25.54848,-24.75351 -25.54848,-26.21088 0,-0.85131 20.79171,-0.62406 34.65,0.37881 80.87454,5.85252 154.0827,23.54148 185.85,44.90613 8.46972,5.69615 10.44945,7.48745 15.03675,13.60505 8.2881,11.0528 7.40448,23.319 -2.15487,29.9135 -11.30166,7.7963 -29.72097,12.1265 -60.13188,14.1362 -20.57139,1.3594 -85.49289,1.2058 -86.66118,-0.205 z m 174.44403,-45.267 c -9.04806,-8.6304 -37.95318,-50.87825 -45.4941,-66.49442 -5.77539,-11.95992 -10.1745,-26.49249 -8.36658,-27.63909 2.12022,-1.3446 11.99475,-0.81153 19.25883,1.03968 30.53025,7.78059 67.00923,30.60873 83.35134,52.16031 5.83497,7.69518 10.78002,17.85429 11.28717,23.1885 0.55359,5.82363 -1.57671,8.32802 -10.86732,12.77582 -8.60769,4.1207 -16.8507,6.65 -27.94509,8.5746 -13.82895,2.399 -15.1677,2.1715 -21.22425,-3.6054 z m 94.7394,-18.57086 c -0.52326,-0.65295 -3.09438,-5.84469 -5.71365,-11.53719 -9.32724,-20.27088 -22.05666,-37.66239 -37.29258,-50.95044 -18.92214,-16.50321 -39.20688,-25.26354 -77.86602,-33.62805 -25.69995,-5.56056 -37.92375,-9.12051 -47.25,-13.76055 -6.72885,-3.34782 -17.98218,-11.22885 -21.71691,-15.20901 -2.69667,-2.8737 -10.23309,-14.27018 -10.23309,-15.4742 0,-1.3677 30.15603,0.1095 53.55,2.62316 110.75589,11.90055 195.15285,55.62111 232.62651,120.50832 2.48787,4.30803 4.52349,8.15319 4.52349,8.54487 0,0.39168 -6.58125,0.92205 -14.625,1.17864 -10.02384,0.31977 -22.69476,1.60776 -40.275,4.09401 -36.4716,5.1579 -34.63632,4.97241 -35.72775,3.61044 z m 125.37971,-19.41219 c -18.52847,-19.86075 -52.28522,-52.94187 -63.63899,-62.36541 -19.9773,-16.58088 -37.78137,-28.55277 -58.86297,-39.58101 -21.47733,-11.23533 -38.55582,-17.60891 -63.8064,-23.81231 -25.19037,-6.18862 -38.10321,-8.05158 -75.2436,-10.85553 -43.7238,-3.30095 -55.16649,-6.44174 -91.35,-25.07373 -31.26951,-16.10162 -37.50633,-20.50043 -56.49723,-39.84769 -14.11029,-14.37499 -21.49407,-19.92312 -35.21898,-26.46338 -20.06766,-9.56274 -26.62803,-10.85919 -77.07258,-15.23091 -98.26641,-8.51616 -143.83998,-17.91792 -185.91453,-38.35393 -14.00256,-6.8012 -23.38065,-12.7527 -33.22944,-21.0881 -12.26961,-10.38421 -19.3923,-19.52165 -26.07921,-33.45622 -3.91005,-8.14798 -8.44938,-22.68543 -7.40853,-23.72626 1.18206,-1.1821 18.02385,-4.99888 27.6705,-6.27084 13.15908,-1.73508 36.00009,-1.68105 48.4326,0.11457 31.10508,4.49251 63.3339,17.94947 108.33606,45.23518 8.07471,4.89587 23.38884,14.18036 34.03134,20.63221 31.7133,19.22571 49.04028,27.62946 70.75755,34.31815 14.36805,4.4252 62.38152,14.95297 142.09245,31.15619 25.245,5.13166 50.1525,10.34071 55.35,11.57565 20.80494,4.94332 43.24734,13.41855 89.1,33.64809 57.59811,25.41144 80.88417,34.01835 113.58153,41.98156 33.74802,8.21908 52.04016,9.97998 94.76843,9.12295 72.2062,-1.44829 162.1025,8.14284 220.275,23.5014 6.8063,1.79694 12.375,3.62268 12.375,4.05711 0,1.14876 -8.7366,18.37818 -11.5173,22.71339 -6.4589,10.0692 -19.5667,24.07005 -30.1344,32.18724 -21.3314,16.38513 -51.9389,30.53358 -90.1983,41.69457 -18.6656,5.44518 -95.4598,24.76206 -98.4413,24.76206 -1.765,0 -4.5564,-2.4282 -12.1567,-10.575 z m -288.55196,-7.55388 c -22.50981,-10.37196 -53.48934,-17.78598 -116.1,-27.78516 -78.97086,-12.61197 -103.92057,-19.05201 -135.87309,-35.07165 -19.35486,-9.70371 -33.29253,-20.36961 -45.70191,-34.97373 l -6.525,-7.67898 0,-8.7386 0,-8.7386 12.37491,-0.66279 c 26.81271,-1.43608 73.32336,0.49112 99.56016,4.12533 98.41086,13.63144 167.8878,52.98529 194.55741,110.20306 4.29444,9.21339 5.34807,12.17898 4.29318,12.08331 -0.40464,-0.0369 -3.36816,-1.27962 -6.58566,-2.76219 z m -100.35,-118.34946 c -6.93,-1.20263 -26.5725,-4.82938 -43.65,-8.05944 -93.72357,-17.72702 -118.35864,-20.86741 -170.30358,-21.7097 l -32.15358,-0.52137 -15.18246,-18.99058 c -8.35029,-10.44482 -17.57376,-22.23064 -20.49642,-26.19072 -6.12414,-8.29795 -16.92,-25.59379 -16.33833,-26.17543 1.23084,-1.23089 23.27445,-2.42258 44.77437,-2.42053 25.61796,0.003 40.4577,1.12645 63.12258,4.78109 77.25087,12.45643 148.65408,45.66552 197.20242,91.71736 4.82625,4.57806 8.775,8.68914 8.775,9.13571 0,1.08565 -1.0962,0.97663 -15.75,-1.56639 z m -1093.05,-37.14468 c -16.03163,-5.02674 -24.29422,-21.1311 -24.28187,-47.32698 0.009,-19.9914 4.55978,-35.94611 10.8804,-38.14949 6.28045,-2.18937 13.91326,-0.86144 19.68127,3.4241 4.72623,3.51151 6.94208,6.28094 9.83801,12.29574 5.61316,11.65849 6.01089,24.37454 1.49538,47.80948 -1.69774,8.81109 -3.21649,17.43767 -3.375,19.17017 l -0.28819,3.15 -5.85,0.16623 c -3.2175,0.0914 -6.8625,-0.15123 -8.1,-0.53925 z m 1480.54996,-7.80124 c -4.1801,-0.6497 -14.71006,-1.618 -23.40001,-2.15176 -17.955,-1.10285 -26.92827,-2.20798 -34.69995,-4.27358 -5.56344,-1.47867 -12.15,-4.36934 -12.15,-5.33229 0,-2.41879 19.63431,-36.06524 30.90942,-52.96811 44.62894,-66.9045 100.24804,-127.00136 193.64054,-209.2299 28.2571,-24.87926 36.8151,-32.88173 70.1858,-65.63006 16.3428,-16.03798 35.3893,-34.46548 42.3255,-40.95 40.7379,-38.08508 94.9903,-80.20857 164.6887,-127.86996 14.355,-9.81628 29.745,-20.53578 34.2,-23.82113 15.9164,-11.73746 32.5507,-23.26663 41.8689,-29.01912 5.208,-3.21502 18.168,-11.52353 28.8,-18.46336 44.5312,-29.06657 82.5217,-50.52582 115.3994,-65.18433 20.8996,-9.31804 54.4231,-23.32059 70.8817,-29.60686 54.1069,-20.66567 90.7865,-26.78688 115.8221,-19.32877 4.7495,1.41486 15.6721,8.15843 16.2474,10.03101 0.4661,1.51746 -19.0882,11.61703 -25.8707,13.36189 -17.1116,4.40217 -28.643,8.98954 -48.0623,19.12009 -36.3315,18.95324 -62.6975,36.86405 -167.4865,113.7762 -83.1897,61.05894 -178.7849,132.23622 -213.3,158.8167 -73.2092,56.37935 -148.0542,119.05462 -208.35,174.47253 -32.7503,30.10094 -95.1813,91.59287 -111.5021,109.82507 -15.4524,17.26214 -34.6945,43.29095 -59.0486,79.875 -6.8098,10.22963 -11.1496,15.93131 -12.0669,15.85352 -0.7878,-0.0669 -4.8524,-0.65307 -9.0324,-1.30278 z M 865.50038,771.45675 c -9.65979,-1.53776 -22.94478,-6.43162 -57.57894,-21.21063 -20.59245,-8.78717 -50.01678,-23.06878 -51.6573,-25.07279 -1.71396,-2.09366 -1.41399,-2.66377 13.23819,-25.16205 40.98897,-62.93797 93.04587,-121.88363 189.16911,-214.20218 18.0675,-17.35237 53.50496,-52.04869 78.74996,-77.10295 51.1045,-50.71831 61.7227,-60.99479 83.25,-80.57077 54.4222,-49.48909 86.4878,-74.34278 155.7244,-120.70069 71.7649,-48.05074 184.9218,-119.043642 243.2454,-152.608485 52.4359,-30.176611 112.128,-46.1033334 154.5643,-41.240081 11.6243,1.332153 21.0332,4.056972 31.2953,9.063027 7.4172,3.618256 10.7366,5.917912 16.5407,11.459143 6.3917,6.102303 13.3381,14.811238 14.7516,18.494533 0.3378,0.880506 -2.1193,2.385171 -8.3464,5.110938 -60.8415,26.631999 -105.8421,50.821145 -163.2735,87.764185 -73.5087,47.28486 -194.4738,132.34233 -248.5554,174.77348 -68.0757,53.41061 -180.3408,156.61853 -233.5915,214.74615 -58.702,64.07822 -130.75953,153.38133 -172.34349,213.59064 -8.27928,11.98752 -14.68773,18.14006 -21.68307,20.81702 -5.75055,2.2006 -16.60842,3.1485 -23.49936,2.05151 z M 709.37144,712.3504 c -3.2175,-0.70342 -12.5325,-3.4764 -20.7,-6.16218 -8.1675,-2.68577 -17.17875,-5.34264 -20.025,-5.90415 -6.09597,-1.20262 -6.01848,-0.87807 -2.94678,-12.34343 8.09244,-30.20572 26.01468,-62.50985 54.14112,-97.58732 13.58199,-16.93868 29.5326,-34.34532 58.34898,-63.67544 14.88015,-15.14542 33.37263,-34.42213 41.09445,-42.83713 13.4082,-14.61187 34.54425,-35.42628 84.03723,-82.75829 12.375,-11.83469 35.27217,-34.20178 50.88258,-49.70465 15.61032,-15.50288 28.638,-28.18706 28.9503,-28.18706 0.31239,0 2.32272,0.75139 4.46751,1.66975 9.60183,4.11137 19.15267,3.09366 32.69957,-3.48435 9.1743,-4.45476 16.9001,-10.3433 37.7468,-28.77013 18.4942,-16.34736 29.4197,-24.6338 38.3032,-29.0511 5.2096,-2.59046 6.6875,-2.90919 13.5,-2.91153 7.0905,-0.003 8.0121,0.21749 12.6,3.00716 4.9711,3.02259 10.8623,9.57281 10.7282,11.92828 -0.04,0.69406 -12.0882,11.96004 -26.775,25.03552 -137.75992,122.64646 -260.48212,251.37073 -364.24492,382.0595 -13.38804,16.86209 -24.93054,30.7252 -25.65,30.80692 -0.71955,0.0817 -3.94074,-0.42694 -7.15824,-1.13037 z m -108.9,-25.70068 c -4.2075,-1.42544 -20.0025,-5.64934 -35.1,-9.38644 -49.59999,-12.27752 -62.80866,-16.44268 -80.83872,-25.49123 -27.42345,-13.76277 -28.42956,-28.7071 -4.15584,-61.7313 21.20931,-28.85523 25.56819,-36.08885 30.09861,-49.95 5.16393,-15.79942 4.69188,-28.28219 -1.72827,-45.69447 l -2.64096,-7.16256 2.23722,-4.84649 c 4.2408,-9.18685 10.49409,-13.50161 16.97445,-11.71229 8.06517,2.22689 14.688,8.23598 33.00759,29.9488 10.03212,11.89025 15.00597,16.09459 21.01329,17.76235 13.66047,3.79244 28.04022,-2.73669 49.97592,-22.69159 19.78029,-17.99401 24.63156,-21.30375 31.22658,-21.30375 4.27536,0 6.77421,1.71024 9.63747,6.59599 9.66726,16.49593 12.21687,51.5949 5.79708,79.80401 -5.80014,25.48624 -17.31591,49.94332 -46.70442,99.19026 -13.94829,23.37349 -17.91936,29.39367 -19.35,29.33467 -0.99,-0.0409 -5.2425,-1.24051 -9.45,-2.66596 z M -469.14735,676.3421 c -17.87906,-4.32139 -55.88268,-28.44993 -97.68121,-62.01791 -14.79358,-11.88057 -21.88982,-18.3317 -23.13441,-21.0313 -2.93823,-6.37321 -0.78857,-15.26644 8.18271,-33.85214 19.16708,-39.70822 49.24728,-72.40765 81.54687,-88.64757 16.53181,-8.31203 30.37061,-12.55222 48.57062,-14.88194 49.74186,-6.36729 85.92359,11.26253 97.03183,47.27951 2.02717,6.57284 2.94474,15.82497 1.54865,15.61557 -0.49294,-0.074 -4.33877,-0.87546 -8.54627,-1.78114 -5.57053,-1.19909 -11.19732,-1.62572 -20.7,-1.56953 -11.45187,0.0677 -14.03799,0.37485 -21.11772,2.50803 -4.43724,1.33699 -10.30974,3.80143 -13.05,5.47655 -15.42446,9.42897 -34.49237,38.17548 -40.17097,60.5612 -3.39574,13.38641 -3.08095,25.37336 1.08503,41.316 5.32281,20.36971 5.24564,38.34529 -0.20499,47.74832 -1.36388,2.35286 -2.86706,3.825 -3.90568,3.825 -0.92865,0 -2.22783,0.16853 -2.88706,0.3745 -0.65924,0.20597 -3.61456,-0.20945 -6.5674,-0.92315 z m 56.86706,-3.43301 c -5.32888,-1.54287 -9.8707,-4.93306 -13.05487,-9.74465 -2.31906,-3.50435 -2.4405,-4.24463 -2.53479,-15.45218 -0.0805,-9.57392 -0.45033,-12.70792 -1.98082,-16.78746 -4.70701,-12.5466 -4.26138,-30.07307 1.18077,-46.43839 4.56034,-13.71365 9.8407,-23.54065 19.66392,-36.59557 4.55969,-6.05976 4.67765,-6.14195 8.04733,-5.60719 4.73432,0.75131 19.11426,5.41702 29.88019,9.6949 41.33846,16.42599 68.4206,39.13004 77.2746,64.78239 1.27888,3.70527 2.58443,8.94211 2.90122,11.63745 0.57191,4.86614 0.55,4.92406 -3.11474,8.23494 -10.04959,9.07921 -58.54457,29.25767 -83.81108,34.87327 -10.93618,2.43062 -28.43966,3.14317 -34.45173,1.40249 z m 818.35173,-65.03864 c -8.57844,-1.43041 -27.49014,-6.74071 -49.05,-13.77294 -44.48448,-14.50964 -65.75166,-18.90642 -91.35,-18.88573 -8.12871,0.006 -17.51787,0.5853 -22.5,1.38687 -17.22087,2.77066 -15.58917,2.73779 -14.86143,0.29937 1.18683,-3.97697 7.73847,-15.51052 13.47507,-23.72144 32.4981,-46.51546 91.10313,-95.03762 124.13952,-102.78164 7.98075,-1.87074 21.83481,-3.64513 37.89684,-4.85371 59.00481,-4.4398 82.20204,12.22252 80.25948,57.64952 -0.58752,13.7398 -3.52872,30.93151 -8.16066,47.7 -5.74407,20.79472 -12.67137,34.58108 -22.15089,44.08369 -10.24569,10.27073 -19.06398,13.59665 -35.51202,13.39375 -5.46471,-0.0674 -10.94841,-0.29139 -12.18591,-0.49774 z m -71.6292,-165.13501 c -4.59549,-1.19152 -21.82896,-10.3971 -29.57058,-15.79564 -25.23843,-17.59985 -44.95257,-39.58021 -58.50081,-65.22596 -16.33482,-30.92054 -16.21539,-59.69501 0.3348,-80.63256 16.64055,-21.05186 53.38521,-34.32699 101.79693,-36.77718 l 11.66886,-0.59058 0.0153,7.11361 c 0.018,8.02432 1.56555,16.28368 4.52628,24.15049 1.98576,5.27645 8.98515,13.52416 14.27634,16.82252 l 2.16828,1.35164 -4.41828,2.57754 c -6.33537,3.69592 -15.47478,12.76422 -18.15273,18.01143 -3.35916,6.58202 -3.7719,15.39684 -1.10079,23.51169 3.07278,9.33506 6.37146,15.41027 18.20754,33.5333 5.94306,9.09974 12.63105,20.39868 14.86224,25.10876 3.59163,7.58192 4.10805,9.46402 4.50441,16.41569 0.39987,7.01321 0.20754,8.3765 -1.80072,12.76307 l -2.24838,4.91117 -7.92351,1.10844 c -9.50958,1.33031 -24.56505,5.1314 -36.86634,9.30768 -6.91128,2.34636 -9.64503,2.88825 -11.7792,2.33489 z m 70.2792,-66.82461 c -12.57336,-3.09265 -18.85977,-9.10492 -31.45977,-30.08813 l -3.43359,-5.71804 1.49598,-5.38074 c 1.65204,-5.94217 5.74605,-14.53691 9.56637,-20.08317 8.05851,-11.69903 22.08789,-19.35 35.4816,-19.35 l 3.91203,0 0.61848,7.425 c 1.25397,15.05504 4.98717,24.47242 12.42702,31.34866 l 4.53339,4.18989 -4.17978,5.13116 c -6.55407,8.04578 -12.31173,21.85224 -12.31173,29.52262 0,1.39654 -0.50625,2.69514 -1.125,2.88576 -3.3201,1.02289 -11.58867,1.0852 -15.525,0.11699 z m 44.97984,-51.93476 c -5.64849,-5.20658 -9.54837,-13.48286 -10.12032,-21.47728 -0.51147,-7.14746 -0.29034,-7.32724 5.67774,-4.61634 4.10526,1.86475 7.94511,6.00761 9.89604,10.67687 1.31364,3.14387 1.82736,14.95337 0.7704,17.70782 -0.82134,2.14043 -1.81179,1.77584 -6.22386,-2.29107 z m -60.17643,-44.96479 c -1.31418,-1.0337 -2.93823,-2.95745 -3.60909,-4.275 -1.48311,-2.91275 -6.17832,-22.71152 -5.53788,-23.35195 0.62388,-0.62386 6.22593,3.17093 12.13974,8.22338 2.69298,2.30067 5.28048,4.18304 5.75001,4.18304 1.56213,0 -0.0216,10.5933 -2.08224,13.92736 -2.268,3.66978 -3.36771,3.88331 -6.66054,1.29317 z"
         id="path3672"
         inkscape:connector-curvature="0" />
      <path
         style="fill:#278777"
         d="m 209.20373,1220.484 c -37.90852,-1.5592 -66.01968,-4.102 -95.53308,-8.6412 -28.875675,-4.441 -47.544267,-10.7737 -59.2131,-20.0859 -4.427964,-3.5337 -4.63779,-3.8912 -4.148037,-7.069 1.085301,-7.042 4.537305,-10.7592 13.763421,-14.8207 2.723328,-1.1988 6.267078,-3.678 7.875,-5.5094 5.115672,-5.8264 3.877803,-7.2759 -6.976494,-8.1693 -12.868497,-1.0593 -70.116237,-7.5359 -96.266763,-10.8911 -145.333677,-18.6467 -252.594277,-43.671 -339.333237,-79.1677 -76.75858,-31.4124 -140.99757,-74.88407 -180.83438,-122.37365 -44.18504,-52.67313 -67.75342,-108.19163 -76.22793,-179.5653 -1.98782,-16.74177 -2.30139,-23.11069 -2.32635,-47.25 -0.0457,-44.21915 2.80185,-65.59167 10.77056,-80.83915 3.54282,-6.77887 10.42352,-15.01085 12.54683,-15.01085 0.74906,0 5.06528,3.38065 9.5916,7.51255 25.49659,23.27485 64.20176,51.83123 91.70467,67.65901 5.81625,3.34721 10.575,6.55324 10.575,7.1245 0,0.57124 -1.6581,2.63958 -3.68466,4.59629 -8.64953,8.35138 -16.20953,22.05983 -19.38698,35.15419 -2.41344,9.94582 -2.03182,26.54874 0.86237,37.51803 5.12334,19.41809 14.01861,34.66909 28.19203,48.33543 9.67093,9.32494 15.03135,12.69544 23.73828,14.92605 9.12226,2.33701 16.61217,0.16836 22.47317,-6.50695 6.26921,-7.14023 9.26738,-17.41874 10.64581,-36.49653 0.44734,-6.19133 1.23837,-11.10309 1.92051,-11.925 0.78147,-0.94162 2.71551,-1.39757 5.92816,-1.39757 5.32609,0 5.08336,0.36399 6.30185,-9.45 2.89928,-23.35181 17.50384,-50.96438 36.30925,-68.64929 28.37619,-26.68539 66.21325,-43.83758 109.90021,-49.81962 16.83526,-2.30525 55.66158,-1.04516 61.33387,1.99055 0.88531,0.47381 2.71082,2.74047 4.05669,5.03701 1.98438,3.38611 2.52111,5.58678 2.83881,11.63977 0.37651,7.17359 0.27358,7.66739 -2.64381,12.6829 l -3.03556,5.21868 0.0184,27.45 c 0.0197,29.52794 1.05976,41.37367 5.45243,62.1 5.18176,24.44963 16.44815,51.81503 29.15306,70.81111 13.50548,20.19311 35.35906,42.03314 61.29603,61.25804 18.802175,13.93659 40.908992,27.45738 95.330165,58.30542 19.0575,10.80252 39.96063,22.76766 46.451403,26.58928 63.310779,37.2754 114.547912,73.7891 158.680882,113.0827 l 9.38228,8.3535 5.91772,0.01 c 3.25474,0 13.41022,0.5897 22.56772,1.3033 47.14947,3.6739 120.71519,4.1159 162.45,0.9761 86.19426,-6.4847 165.64517,-21.3154 241.7723,-45.1307 11.69982,-3.66 21.70972,-6.6547 22.24422,-6.6547 0.53451,0 4.22568,2.872 8.20269,6.3821 8.55603,7.5518 8.78418,8.5402 4.03749,17.4877 -9.66897,18.2258 -24.68807,35.9825 -40.50243,47.8848 -55.0215,41.4109 -146.06927,65.0319 -282.10428,73.1878 -20.65859,1.2385 -108.83249,1.8067 -132.0677,0.8509 z m 460.96443,-61.685 c -0.87003,-5.8019 0.15219,-20.5343 1.79226,-25.8301 0.72765,-2.3495 3.24252,-8.0195 5.58846,-12.6 3.6612,-7.1484 5.73921,-9.8039 14.66901,-18.7454 6.76539,-6.7743 13.39353,-12.3783 18.95355,-16.025 9.60687,-6.301 29.78649,-16.7493 44.30547,-22.9398 19.01943,-8.1095 59.64309,-21.0791 62.541,-19.9671 1.1826,0.4538 1.32183,1.6327 0.85077,7.2051 -1.30941,15.4909 -10.46754,31.1697 -28.79685,49.3004 -10.34289,10.2309 -14.42232,13.0315 -39.75039,27.2894 -38.42469,21.6303 -66.74841,35.3117 -74.8521,36.1562 l -4.6521,0.4848 -0.64908,-4.3285 z m -388.29672,-50.8461 c -17.79471,-1.1085 -34.88652,-3.1498 -50.07357,-5.9804 l -12.72361,-2.3716 -8.42641,-7.6295 c -17.66011,-15.99 -37.9353,-31.4224 -62.00837,-47.198 -22.21164,-14.5557 -35.18496,-22.3094 -83.21804,-49.73652 -90.569619,-51.7158 -128.315898,-75.80124 -174.6,-111.40992 -13.74759,-10.57671 -18.72067,-15.15645 -25.23271,-23.23692 -17.92211,-22.23877 -29.77023,-49.60755 -35.60625,-82.24929 -3.64849,-20.40661 -3.38499,-54.49744 0.60087,-77.73933 7.65918,-44.66133 30.93922,-88.91814 60.47131,-114.95975 24.952875,-22.00361 50.634654,-34.34626 84.36678,-40.54662 13.628781,-2.50512 48.078477,-2.30286 67.118688,0.39408 76.579052,10.84696 134.690512,47.14779 192.662532,120.35162 14.52501,18.34136 36.41337,49.95507 51.40872,74.25037 2.29149,3.7127 7.46802,10.5977 11.50344,15.3 4.03533,4.70229 11.23632,13.61213 16.00218,19.79963 24.74154,32.12193 28.04274,35.78895 63.71055,70.77057 19.24668,18.87627 37.82889,36.83226 41.29389,39.90216 7.9947,7.083 24.87987,19.6758 35.21772,26.26506 9.20016,5.86413 21.69216,16.72821 45.59121,39.65022 38.45178,36.87966 95.1579,98.97184 95.13495,104.17104 -0.01,2.1423 -5.12532,5.1546 -16.78941,9.8857 -43.89948,17.8064 -133.6644,35.1131 -212.70447,41.0096 -22.92741,1.7104 -66.34503,2.3888 -83.7,1.3078 z m 570.89925,-21.4281 c -10.10727,-3.4928 -14.66838,-9.8411 -15.41358,-21.4528 -0.59769,-9.3124 1.24506,-19.0965 4.67334,-24.8141 5.97609,-9.9668 24.34266,-19.7972 47.79099,-25.5794 5.18247,-1.278 11.00979,-1.5733 32.85,-1.6646 28.77966,-0.1203 30.83292,-0.3327 62.1,-6.4253 13.05783,-2.5445 18.97996,-3.2627 27.44996,-3.3289 11.7959,-0.092 15.6276,0.7711 21.6369,4.875 3.2985,2.2526 7.6812,8.3356 6.6736,9.2628 -1.4784,1.3605 -46.32009,25.0002 -63.41046,33.4288 -41.18913,20.3134 -72.33489,32.0797 -95.2929,35.9997 -10.90134,1.8614 -23.16789,1.7342 -29.05785,-0.3012 z m -236.81043,-30.059 c -0.51237,-0.6188 -2.21706,-4.365 -3.78819,-8.325 -7.92801,-19.9825 -20.31183,-34.734 -57.25215,-68.19881 -12.14343,-11.00097 -25.54848,-24.75351 -25.54848,-26.21088 0,-0.85131 20.79171,-0.62406 34.65,0.37881 80.87454,5.85252 154.0827,23.54148 185.85,44.90613 8.46972,5.69615 10.44945,7.48745 15.03675,13.60505 8.2881,11.0528 7.40448,23.319 -2.15487,29.9135 -11.30166,7.7963 -29.72097,12.1265 -60.13188,14.1362 -20.57139,1.3594 -85.49289,1.2058 -86.66118,-0.205 z m 174.44403,-45.267 c -9.04806,-8.6304 -37.95318,-50.87825 -45.4941,-66.49442 -5.77539,-11.95992 -10.1745,-26.49249 -8.36658,-27.63909 2.12022,-1.3446 11.99475,-0.81153 19.25883,1.03968 30.53025,7.78059 67.00923,30.60873 83.35134,52.16031 5.83497,7.69518 10.78002,17.85429 11.28717,23.1885 0.55359,5.82363 -1.57671,8.32802 -10.86732,12.77582 -8.60769,4.1207 -16.8507,6.65 -27.94509,8.5746 -13.82895,2.399 -15.1677,2.1715 -21.22425,-3.6054 z m 94.7394,-18.57086 c -0.52326,-0.65295 -3.09438,-5.84469 -5.71365,-11.53719 -9.32724,-20.27088 -22.05666,-37.66239 -37.29258,-50.95044 -18.92214,-16.50321 -39.20688,-25.26354 -77.86602,-33.62805 -25.69995,-5.56056 -37.92375,-9.12051 -47.25,-13.76055 -6.72885,-3.34782 -17.98218,-11.22885 -21.71691,-15.20901 -2.69667,-2.8737 -10.23309,-14.27018 -10.23309,-15.4742 0,-1.3677 30.15603,0.1095 53.55,2.62316 110.75589,11.90055 195.15285,55.62111 232.62651,120.50832 2.48787,4.30803 4.52349,8.15319 4.52349,8.54487 0,0.39168 -6.58125,0.92205 -14.625,1.17864 -10.02384,0.31977 -22.69476,1.60776 -40.275,4.09401 -36.4716,5.1579 -34.63632,4.97241 -35.72775,3.61044 z m 125.37971,-19.41219 c -18.52847,-19.86075 -52.28522,-52.94187 -63.63899,-62.36541 -19.9773,-16.58088 -37.78137,-28.55277 -58.86297,-39.58101 -21.47733,-11.23533 -38.55582,-17.60891 -63.8064,-23.81231 -25.19037,-6.18862 -38.10321,-8.05158 -75.2436,-10.85553 -43.7238,-3.30095 -55.16649,-6.44174 -91.35,-25.07373 -31.26951,-16.10162 -37.50633,-20.50043 -56.49723,-39.84769 -14.11029,-14.37499 -21.49407,-19.92312 -35.21898,-26.46338 -20.06766,-9.56274 -26.62803,-10.85919 -77.07258,-15.23091 -98.26641,-8.51616 -143.83998,-17.91792 -185.91453,-38.35393 -14.00256,-6.8012 -23.38065,-12.7527 -33.22944,-21.0881 -12.26961,-10.38421 -19.3923,-19.52165 -26.07921,-33.45622 -3.91005,-8.14798 -8.44938,-22.68543 -7.40853,-23.72626 1.18206,-1.1821 18.02385,-4.99888 27.6705,-6.27084 13.15908,-1.73508 36.00009,-1.68105 48.4326,0.11457 31.10508,4.49251 63.3339,17.94947 108.33606,45.23518 8.07471,4.89587 23.38884,14.18036 34.03134,20.63221 31.7133,19.22571 49.04028,27.62946 70.75755,34.31815 14.36805,4.4252 62.38152,14.95297 142.09245,31.15619 25.245,5.13166 50.1525,10.34071 55.35,11.57565 20.80494,4.94332 43.24734,13.41855 89.1,33.64809 57.59811,25.41144 80.88417,34.01835 113.58153,41.98156 33.74802,8.21908 52.04016,9.97998 94.76843,9.12295 72.2062,-1.44829 162.1025,8.14284 220.275,23.5014 6.8063,1.79694 12.375,3.62268 12.375,4.05711 0,1.14876 -8.7366,18.37818 -11.5173,22.71339 -6.4589,10.0692 -19.5667,24.07005 -30.1344,32.18724 -21.3314,16.38513 -51.9389,30.53358 -90.1983,41.69457 -18.6656,5.44518 -95.4598,24.76206 -98.4413,24.76206 -1.765,0 -4.5564,-2.4282 -12.1567,-10.575 z m -288.55196,-7.55388 c -22.50981,-10.37196 -53.48934,-17.78598 -116.1,-27.78516 -78.97086,-12.61197 -103.92057,-19.05201 -135.87309,-35.07165 -19.35486,-9.70371 -33.29253,-20.36961 -45.70191,-34.97373 l -6.525,-7.67898 0,-8.7386 0,-8.7386 12.37491,-0.66279 c 26.81271,-1.43608 73.32336,0.49112 99.56016,4.12533 98.41086,13.63144 167.8878,52.98529 194.55741,110.20306 4.29444,9.21339 5.34807,12.17898 4.29318,12.08331 -0.40464,-0.0369 -3.36816,-1.27962 -6.58566,-2.76219 z m -100.35,-118.34946 c -6.93,-1.20263 -26.5725,-4.82938 -43.65,-8.05944 -93.72357,-17.72702 -118.35864,-20.86741 -170.30358,-21.7097 l -32.15358,-0.52137 -15.18246,-18.99058 c -8.35029,-10.44482 -17.57376,-22.23064 -20.49642,-26.19072 -6.12414,-8.29795 -16.92,-25.59379 -16.33833,-26.17543 1.23084,-1.23089 23.27445,-2.42258 44.77437,-2.42053 25.61796,0.003 40.4577,1.12645 63.12258,4.78109 77.25087,12.45643 148.65408,45.66552 197.20242,91.71736 4.82625,4.57806 8.775,8.68914 8.775,9.13571 0,1.08565 -1.0962,0.97663 -15.75,-1.56639 z m -1093.05,-37.14468 c -16.03163,-5.02674 -24.29422,-21.1311 -24.28187,-47.32698 0.009,-19.9914 4.55978,-35.94611 10.8804,-38.14949 6.28045,-2.18937 13.91326,-0.86144 19.68127,3.4241 4.72623,3.51151 6.94208,6.28094 9.83801,12.29574 5.61316,11.65849 6.01089,24.37454 1.49538,47.80948 -1.69774,8.81109 -3.21649,17.43767 -3.375,19.17017 l -0.28819,3.15 -5.85,0.16623 c -3.2175,0.0914 -6.8625,-0.15123 -8.1,-0.53925 z m 1480.54996,-7.80124 c -4.1801,-0.6497 -14.71006,-1.618 -23.40001,-2.15176 -17.955,-1.10285 -26.92827,-2.20798 -34.69995,-4.27358 -5.56344,-1.47867 -12.15,-4.36934 -12.15,-5.33229 0,-2.41879 19.63431,-36.06524 30.90942,-52.96811 44.62894,-66.9045 100.24804,-127.00136 193.64054,-209.2299 28.2571,-24.87926 36.8151,-32.88173 70.1858,-65.63006 16.3428,-16.03798 35.3893,-34.46548 42.3255,-40.95 40.7379,-38.08508 94.9903,-80.20857 164.6887,-127.86996 14.355,-9.81628 29.745,-20.53578 34.2,-23.82113 15.9164,-11.73746 32.5507,-23.26663 41.8689,-29.01912 5.208,-3.21502 18.168,-11.52353 28.8,-18.46336 44.5312,-29.06657 82.5217,-50.52582 115.3994,-65.18433 20.8996,-9.31804 54.4231,-23.32059 70.8817,-29.60686 54.1069,-20.66567 90.7865,-26.78688 115.8221,-19.32877 4.7495,1.41486 15.6721,8.15843 16.2474,10.03101 0.4661,1.51746 -19.0882,11.61703 -25.8707,13.36189 -17.1116,4.40217 -28.643,8.98954 -48.0623,19.12009 -36.3315,18.95324 -62.6975,36.86405 -167.4865,113.7762 -83.1897,61.05894 -178.7849,132.23622 -213.3,158.8167 -73.2092,56.37935 -148.0542,119.05462 -208.35,174.47253 -32.7503,30.10094 -95.1813,91.59287 -111.5021,109.82507 -15.4524,17.26214 -34.6945,43.29095 -59.0486,79.875 -6.8098,10.22963 -11.1496,15.93131 -12.0669,15.85352 -0.7878,-0.0669 -4.8524,-0.65307 -9.0324,-1.30278 z M 865.50038,771.45675 c -9.65979,-1.53776 -22.94478,-6.43162 -57.57894,-21.21063 -20.59245,-8.78717 -50.01678,-23.06878 -51.6573,-25.07279 -1.71396,-2.09366 -1.41399,-2.66377 13.23819,-25.16205 40.98897,-62.93797 93.04587,-121.88363 189.16911,-214.20218 18.0675,-17.35237 53.50496,-52.04869 78.74996,-77.10295 51.1045,-50.71831 61.7227,-60.99479 83.25,-80.57077 54.4222,-49.48909 86.4878,-74.34278 155.7244,-120.70069 71.7649,-48.05074 184.9218,-119.043642 243.2454,-152.608485 52.4359,-30.176611 112.128,-46.1033334 154.5643,-41.240081 11.6243,1.332153 21.0332,4.056972 31.2953,9.063027 7.4172,3.618256 10.7366,5.917912 16.5407,11.459143 6.3917,6.102303 13.3381,14.811238 14.7516,18.494533 0.3378,0.880506 -2.1193,2.385171 -8.3464,5.110938 -60.8415,26.631999 -105.8421,50.821145 -163.2735,87.764185 -73.5087,47.28486 -194.4738,132.34233 -248.5554,174.77348 -68.0757,53.41061 -180.3408,156.61853 -233.5915,214.74615 -58.702,64.07822 -130.75953,153.38133 -172.34349,213.59064 -8.27928,11.98752 -14.68773,18.14006 -21.68307,20.81702 -5.75055,2.2006 -16.60842,3.1485 -23.49936,2.05151 z M 709.37144,712.3504 c -3.2175,-0.70342 -12.5325,-3.4764 -20.7,-6.16218 -8.1675,-2.68577 -17.17875,-5.34264 -20.025,-5.90415 -6.09597,-1.20262 -6.01848,-0.87807 -2.94678,-12.34343 8.09244,-30.20572 26.01468,-62.50985 54.14112,-97.58732 13.58199,-16.93868 29.5326,-34.34532 58.34898,-63.67544 14.88015,-15.14542 33.37263,-34.42213 41.09445,-42.83713 13.4082,-14.61187 34.54425,-35.42628 84.03723,-82.75829 12.375,-11.83469 35.27217,-34.20178 50.88258,-49.70465 15.61032,-15.50288 28.638,-28.18706 28.9503,-28.18706 0.31239,0 2.32272,0.75139 4.46751,1.66975 9.60183,4.11137 19.15267,3.09366 32.69957,-3.48435 9.1743,-4.45476 16.9001,-10.3433 37.7468,-28.77013 18.4942,-16.34736 29.4197,-24.6338 38.3032,-29.0511 5.2096,-2.59046 6.6875,-2.90919 13.5,-2.91153 7.0905,-0.003 8.0121,0.21749 12.6,3.00716 4.9711,3.02259 10.8623,9.57281 10.7282,11.92828 -0.04,0.69406 -12.0882,11.96004 -26.775,25.03552 -137.75992,122.64646 -260.48212,251.37073 -364.24492,382.0595 -13.38804,16.86209 -24.93054,30.7252 -25.65,30.80692 -0.71955,0.0817 -3.94074,-0.42694 -7.15824,-1.13037 z m -108.9,-25.70068 c -4.2075,-1.42544 -20.0025,-5.64934 -35.1,-9.38644 -49.59999,-12.27752 -62.80866,-16.44268 -80.83872,-25.49123 -27.42345,-13.76277 -28.42956,-28.7071 -4.15584,-61.7313 21.20931,-28.85523 25.56819,-36.08885 30.09861,-49.95 5.16393,-15.79942 4.69188,-28.28219 -1.72827,-45.69447 l -2.64096,-7.16256 2.23722,-4.84649 c 4.2408,-9.18685 10.49409,-13.50161 16.97445,-11.71229 8.06517,2.22689 14.688,8.23598 33.00759,29.9488 10.03212,11.89025 15.00597,16.09459 21.01329,17.76235 13.66047,3.79244 28.04022,-2.73669 49.97592,-22.69159 19.78029,-17.99401 24.63156,-21.30375 31.22658,-21.30375 4.27536,0 6.77421,1.71024 9.63747,6.59599 9.66726,16.49593 12.21687,51.5949 5.79708,79.80401 -5.80014,25.48624 -17.31591,49.94332 -46.70442,99.19026 -13.94829,23.37349 -17.91936,29.39367 -19.35,29.33467 -0.99,-0.0409 -5.2425,-1.24051 -9.45,-2.66596 z M -469.56154,675.5575 c -6.53966,-1.58056 -24.03085,-10.39757 -37.97,-19.14001 -27.64158,-17.33642 -78.09226,-56.30433 -81.7541,-63.14655 -1.39323,-2.60327 -1.14494,-11.10073 0.46819,-16.02373 2.22263,-6.78309 13.07365,-28.6784 18.77525,-37.88491 19.05491,-30.76842 43.7232,-54.56614 70.50497,-68.01675 22.20742,-11.15323 42.24367,-15.8548 67.56706,-15.8548 24.20452,0 42.46489,5.76563 57.13475,18.04003 11.70004,9.78953 20.1827,25.43403 21.57192,39.78497 0.48552,5.01553 0.56129,4.99204 -9.36544,2.90389 -15.28438,-3.21517 -28.87319,-2.61918 -43.15602,1.89276 -13.91309,4.39514 -23.0303,12.32412 -35.31726,30.71443 -12.23476,18.31216 -18.62634,36.80128 -18.62634,53.88101 0,7.86872 0.50815,11.18269 3.32887,21.70959 3.16499,11.81176 3.33113,13.13219 3.375,26.82332 0.0447,13.95006 -0.0316,14.55827 -2.44124,19.46498 -2.0431,4.16034 -2.98747,5.16499 -5.2875,5.625 -3.28963,0.65792 -2.65685,0.71347 -8.80811,-0.77323 z m 875.63298,-67.68705 c -8.57844,-1.43041 -27.49014,-6.74071 -49.05,-13.77294 -44.48448,-14.50964 -65.75166,-18.90642 -91.35,-18.88573 -8.12871,0.006 -17.51787,0.5853 -22.5,1.38687 -17.22087,2.77066 -15.58917,2.73779 -14.86143,0.29937 1.18683,-3.97697 7.73847,-15.51052 13.47507,-23.72144 32.4981,-46.51546 91.10313,-95.03762 124.13952,-102.78164 7.98075,-1.87074 21.83481,-3.64513 37.89684,-4.85371 59.00481,-4.4398 82.20204,12.22252 80.25948,57.64952 -0.58752,13.7398 -3.52872,30.93151 -8.16066,47.7 -5.74407,20.79472 -12.67137,34.58108 -22.15089,44.08369 -10.24569,10.27073 -19.06398,13.59665 -35.51202,13.39375 -5.46471,-0.0674 -10.94841,-0.29139 -12.18591,-0.49774 z m -71.6292,-165.13501 c -4.59549,-1.19152 -21.82896,-10.3971 -29.57058,-15.79564 -25.23843,-17.59985 -44.95257,-39.58021 -58.50081,-65.22596 -16.33482,-30.92054 -16.21539,-59.69501 0.3348,-80.63256 16.64055,-21.05186 53.38521,-34.32699 101.79693,-36.77718 l 11.66886,-0.59058 0.0153,7.11361 c 0.018,8.02432 1.56555,16.28368 4.52628,24.15049 1.98576,5.27645 8.98515,13.52416 14.27634,16.82252 l 2.16828,1.35164 -4.41828,2.57754 c -6.33537,3.69592 -15.47478,12.76422 -18.15273,18.01143 -3.35916,6.58202 -3.7719,15.39684 -1.10079,23.51169 3.07278,9.33506 6.37146,15.41027 18.20754,33.5333 5.94306,9.09974 12.63105,20.39868 14.86224,25.10876 3.59163,7.58192 4.10805,9.46402 4.50441,16.41569 0.39987,7.01321 0.20754,8.3765 -1.80072,12.76307 l -2.24838,4.91117 -7.92351,1.10844 c -9.50958,1.33031 -24.56505,5.1314 -36.86634,9.30768 -6.91128,2.34636 -9.64503,2.88825 -11.7792,2.33489 z m 70.2792,-66.82461 c -12.57336,-3.09265 -18.85977,-9.10492 -31.45977,-30.08813 l -3.43359,-5.71804 1.49598,-5.38074 c 1.65204,-5.94217 5.74605,-14.53691 9.56637,-20.08317 8.05851,-11.69903 22.08789,-19.35 35.4816,-19.35 l 3.91203,0 0.61848,7.425 c 1.25397,15.05504 4.98717,24.47242 12.42702,31.34866 l 4.53339,4.18989 -4.17978,5.13116 c -6.55407,8.04578 -12.31173,21.85224 -12.31173,29.52262 0,1.39654 -0.50625,2.69514 -1.125,2.88576 -3.3201,1.02289 -11.58867,1.0852 -15.525,0.11699 z m 44.97984,-51.93476 c -5.64849,-5.20658 -9.54837,-13.48286 -10.12032,-21.47728 -0.51147,-7.14746 -0.29034,-7.32724 5.67774,-4.61634 4.10526,1.86475 7.94511,6.00761 9.89604,10.67687 1.31364,3.14387 1.82736,14.95337 0.7704,17.70782 -0.82134,2.14043 -1.81179,1.77584 -6.22386,-2.29107 z m -60.17643,-44.96479 c -1.31418,-1.0337 -2.93823,-2.95745 -3.60909,-4.275 -1.48311,-2.91275 -6.17832,-22.71152 -5.53788,-23.35195 0.62388,-0.62386 6.22593,3.17093 12.13974,8.22338 2.69298,2.30067 5.28048,4.18304 5.75001,4.18304 1.56213,0 -0.0216,10.5933 -2.08224,13.92736 -2.268,3.66978 -3.36771,3.88331 -6.66054,1.29317 z"
         id="path3670"
         inkscape:connector-curvature="0" />
      <path
         style="fill:#16469d"
         d="m 209.20373,1220.484 c -37.90852,-1.5592 -66.01968,-4.102 -95.53308,-8.6412 -28.875675,-4.441 -47.544267,-10.7737 -59.2131,-20.0859 -4.427964,-3.5337 -4.63779,-3.8912 -4.148037,-7.069 1.085301,-7.042 4.537305,-10.7592 13.763421,-14.8207 2.723328,-1.1988 6.267078,-3.678 7.875,-5.5094 5.115672,-5.8264 3.877803,-7.2759 -6.976494,-8.1693 -12.868497,-1.0593 -70.116237,-7.5359 -96.266763,-10.8911 -145.333677,-18.6467 -252.594277,-43.671 -339.333237,-79.1677 -76.75858,-31.4124 -140.99757,-74.88407 -180.83438,-122.37365 -44.18504,-52.67313 -67.75342,-108.19163 -76.22793,-179.5653 -1.98782,-16.74177 -2.30139,-23.11069 -2.32635,-47.25 -0.0457,-44.21915 2.80185,-65.59167 10.77056,-80.83915 3.54282,-6.77887 10.42352,-15.01085 12.54683,-15.01085 0.74906,0 5.06528,3.38065 9.5916,7.51255 25.49659,23.27485 64.20176,51.83123 91.70467,67.65901 5.81625,3.34721 10.575,6.55324 10.575,7.1245 0,0.57124 -1.6581,2.63958 -3.68466,4.59629 -8.64953,8.35138 -16.20953,22.05983 -19.38698,35.15419 -2.41344,9.94582 -2.03182,26.54874 0.86237,37.51803 5.12334,19.41809 14.01861,34.66909 28.19203,48.33543 9.67093,9.32494 15.03135,12.69544 23.73828,14.92605 9.12226,2.33701 16.61217,0.16836 22.47317,-6.50695 6.26921,-7.14023 9.26738,-17.41874 10.64581,-36.49653 0.44734,-6.19133 1.23837,-11.10309 1.92051,-11.925 0.78147,-0.94162 2.71551,-1.39757 5.92816,-1.39757 5.32609,0 5.08336,0.36399 6.30185,-9.45 2.89928,-23.35181 17.50384,-50.96438 36.30925,-68.64929 28.37619,-26.68539 66.21325,-43.83758 109.90021,-49.81962 16.83526,-2.30525 55.66158,-1.04516 61.33387,1.99055 0.88531,0.47381 2.71082,2.74047 4.05669,5.03701 1.98438,3.38611 2.52111,5.58678 2.83881,11.63977 0.37651,7.17359 0.27358,7.66739 -2.64381,12.6829 l -3.03556,5.21868 0.0184,27.45 c 0.0197,29.52794 1.05976,41.37367 5.45243,62.1 5.18176,24.44963 16.44815,51.81503 29.15306,70.81111 13.50548,20.19311 35.35906,42.03314 61.29603,61.25804 18.802175,13.93659 40.908992,27.45738 95.330165,58.30542 19.0575,10.80252 39.96063,22.76766 46.451403,26.58928 63.310779,37.2754 114.547912,73.7891 158.680882,113.0827 l 9.38228,8.3535 5.91772,0.01 c 3.25474,0 13.41022,0.5897 22.56772,1.3033 47.14947,3.6739 120.71519,4.1159 162.45,0.9761 86.19426,-6.4847 165.64517,-21.3154 241.7723,-45.1307 11.69982,-3.66 21.70972,-6.6547 22.24422,-6.6547 0.53451,0 4.22568,2.872 8.20269,6.3821 8.55603,7.5518 8.78418,8.5402 4.03749,17.4877 -9.66897,18.2258 -24.68807,35.9825 -40.50243,47.8848 -55.0215,41.4109 -146.06927,65.0319 -282.10428,73.1878 -20.65859,1.2385 -108.83249,1.8067 -132.0677,0.8509 z m 461.83113,-61.7883 c -0.86994,-4.6369 0.24075,-20.6539 1.77327,-25.5733 8.37792,-26.8935 34.81461,-49.1645 82.47996,-69.4837 15.67557,-6.6824 57.34764,-20.4479 61.90128,-20.4479 2.00232,0 0.78957,11.8449 -1.96092,19.1524 -5.50971,14.6378 -21.01491,34.2046 -36.41868,45.9583 -8.60733,6.5679 -53.19018,31.4111 -77.61978,43.2527 -16.74918,8.1187 -22.72545,10.4366 -26.90919,10.4366 -2.31264,0 -2.70189,-0.3952 -3.24594,-3.2951 z m -389.16342,-50.7428 c -17.79471,-1.1085 -34.88652,-3.1498 -50.07357,-5.9804 l -12.72361,-2.3716 -8.42641,-7.6295 c -17.66011,-15.99 -37.9353,-31.4224 -62.00837,-47.198 -22.21164,-14.5557 -35.18496,-22.3094 -83.21804,-49.73652 -90.569619,-51.7158 -128.315898,-75.80124 -174.6,-111.40992 -13.74759,-10.57671 -18.72067,-15.15645 -25.23271,-23.23692 -17.92211,-22.23877 -29.77023,-49.60755 -35.60625,-82.24929 -3.64849,-20.40661 -3.38499,-54.49744 0.60087,-77.73933 7.65918,-44.66133 30.93922,-88.91814 60.47131,-114.95975 24.952875,-22.00361 50.634654,-34.34626 84.36678,-40.54662 13.628781,-2.50512 48.078477,-2.30286 67.118688,0.39408 76.579052,10.84696 134.690512,47.14779 192.662532,120.35162 14.52501,18.34136 36.41337,49.95507 51.40872,74.25037 2.29149,3.7127 7.46802,10.5977 11.50344,15.3 4.03533,4.70229 11.23632,13.61213 16.00218,19.79963 24.74154,32.12193 28.04274,35.78895 63.71055,70.77057 19.24668,18.87627 37.82889,36.83226 41.29389,39.90216 7.9947,7.083 24.87987,19.6758 35.21772,26.26506 9.20016,5.86413 21.69216,16.72821 45.59121,39.65022 38.45178,36.87966 95.1579,98.97184 95.13495,104.17104 -0.01,2.1423 -5.12532,5.1546 -16.78941,9.8857 -43.89948,17.8064 -133.6644,35.1131 -212.70447,41.0096 -22.92741,1.7104 -66.34503,2.3888 -83.7,1.3078 z m 570.89925,-21.4281 c -10.10727,-3.4928 -14.66838,-9.8411 -15.41358,-21.4528 -0.59769,-9.3124 1.24506,-19.0965 4.67334,-24.8141 5.97609,-9.9668 24.34266,-19.7972 47.79099,-25.5794 5.18247,-1.278 11.00979,-1.5733 32.85,-1.6646 28.77966,-0.1203 30.83292,-0.3327 62.1,-6.4253 13.05783,-2.5445 18.97996,-3.2627 27.44996,-3.3289 11.7959,-0.092 15.6276,0.7711 21.6369,4.875 3.2985,2.2526 7.6812,8.3356 6.6736,9.2628 -1.4784,1.3605 -46.32009,25.0002 -63.41046,33.4288 -41.18913,20.3134 -72.33489,32.0797 -95.2929,35.9997 -10.90134,1.8614 -23.16789,1.7342 -29.05785,-0.3012 z m -236.81043,-30.059 c -0.51237,-0.6188 -2.21706,-4.365 -3.78819,-8.325 -7.92801,-19.9825 -20.31183,-34.734 -57.25215,-68.19881 -12.14343,-11.00097 -25.54848,-24.75351 -25.54848,-26.21088 0,-0.85131 20.79171,-0.62406 34.65,0.37881 80.87454,5.85252 154.0827,23.54148 185.85,44.90613 8.46972,5.69615 10.44945,7.48745 15.03675,13.60505 8.2881,11.0528 7.40448,23.319 -2.15487,29.9135 -11.30166,7.7963 -29.72097,12.1265 -60.13188,14.1362 -20.57139,1.3594 -85.49289,1.2058 -86.66118,-0.205 z m 174.44403,-45.267 c -9.04806,-8.6304 -37.95318,-50.87825 -45.4941,-66.49442 -5.77539,-11.95992 -10.1745,-26.49249 -8.36658,-27.63909 2.12022,-1.3446 11.99475,-0.81153 19.25883,1.03968 30.53025,7.78059 67.00923,30.60873 83.35134,52.16031 5.83497,7.69518 10.78002,17.85429 11.28717,23.1885 0.55359,5.82363 -1.57671,8.32802 -10.86732,12.77582 -8.60769,4.1207 -16.8507,6.65 -27.94509,8.5746 -13.82895,2.399 -15.1677,2.1715 -21.22425,-3.6054 z m 94.7394,-18.57086 c -0.52326,-0.65295 -3.09438,-5.84469 -5.71365,-11.53719 -9.32724,-20.27088 -22.05666,-37.66239 -37.29258,-50.95044 -18.92214,-16.50321 -39.20688,-25.26354 -77.86602,-33.62805 -25.69995,-5.56056 -37.92375,-9.12051 -47.25,-13.76055 -6.72885,-3.34782 -17.98218,-11.22885 -21.71691,-15.20901 -2.69667,-2.8737 -10.23309,-14.27018 -10.23309,-15.4742 0,-1.3677 30.15603,0.1095 53.55,2.62316 110.75589,11.90055 195.15285,55.62111 232.62651,120.50832 2.48787,4.30803 4.52349,8.15319 4.52349,8.54487 0,0.39168 -6.58125,0.92205 -14.625,1.17864 -10.02384,0.31977 -22.69476,1.60776 -40.275,4.09401 -36.4716,5.1579 -34.63632,4.97241 -35.72775,3.61044 z M 1011.4758,973.21575 C 993.63275,954.066 957.09365,918.26508 945.98441,909.04737 907.36586,877.00458 869.91128,857.78338 824.21504,846.55702 c -25.19037,-6.18862 -38.10321,-8.05158 -75.2436,-10.85553 -43.21575,-3.26259 -55.25514,-6.51322 -89.74656,-24.23153 -31.24521,-16.05067 -38.24676,-21.00733 -60.10344,-42.54944 -16.08156,-15.85011 -20.30886,-18.92621 -35.33481,-25.71271 -19.02096,-8.59086 -25.74162,-9.8571 -74.95398,-14.12203 -97.68024,-8.46536 -143.87715,-17.94497 -185.16753,-37.99635 -35.37999,-17.18118 -56.36025,-39.33338 -64.66167,-68.27348 -1.29906,-4.52897 -1.99602,-8.48799 -1.56321,-8.87966 1.35432,-1.22532 20.2185,-5.35417 29.1312,-6.37598 11.93103,-1.36787 34.34967,-1.09911 45.75861,0.54855 30.94299,4.46875 62.26929,17.5073 106.51005,44.33132 8.07471,4.89587 23.40783,14.19354 34.07364,20.66152 31.85442,19.31729 50.74308,28.48324 72.51525,35.18884 14.36805,4.4252 62.38152,14.95297 142.09245,31.15619 25.245,5.13166 50.1525,10.34071 55.35,11.57565 20.80494,4.94332 43.24734,13.41855 89.1,33.64809 57.59811,25.41144 80.88417,34.01835 113.58153,41.98156 33.74802,8.21908 52.04016,9.97998 94.76843,9.12295 62.7375,-1.25837 140.9543,5.96656 198.9,18.37252 12.9781,2.77856 31.7393,7.63259 32.5207,8.41397 0.5776,0.57753 -6.8535,15.34725 -11.063,21.98862 -20.3045,32.03388 -59.2,55.97109 -119.5577,73.5786 -18.495,5.39541 -95.4474,24.76206 -98.3906,24.76206 -1.689,0 -4.4584,-2.38059 -11.255,-9.675 z m -289.50436,-8.45388 c -22.50981,-10.37196 -53.48934,-17.78598 -116.1,-27.78516 -40.31559,-6.43851 -58.45896,-9.73566 -74.43693,-13.527 -50.26383,-11.92716 -83.97486,-29.70018 -106.61391,-56.20896 l -6.14898,-7.2 -9e-5,-8.23438 -9e-5,-8.23437 11.4534,-0.66061 c 25.55982,-1.47423 73.48617,0.51166 99.58167,4.1263 88.79553,12.29962 155.74797,46.48117 185.69124,94.80199 5.01786,8.09757 13.86702,26.10684 12.62043,25.68438 -0.10818,-0.0369 -2.82924,-1.27962 -6.04674,-2.76219 z m -100.35,-117.44946 c -6.93,-1.20263 -26.5725,-4.82938 -43.65,-8.05944 -93.72357,-17.72702 -118.35864,-20.86741 -170.30358,-21.7097 l -32.15358,-0.52137 -15.18246,-18.99058 c -8.35029,-10.44482 -17.57376,-22.23064 -20.49642,-26.19072 -6.12414,-8.29795 -16.92,-25.59379 -16.33833,-26.17543 1.23084,-1.23089 23.27445,-2.42258 44.77437,-2.42053 25.61796,0.003 40.4577,1.12645 63.12258,4.78109 77.25087,12.45643 148.65408,45.66552 197.20242,91.71736 4.82625,4.57806 8.775,8.68914 8.775,9.13571 0,1.08565 -1.0962,0.97663 -15.75,-1.56639 z m -1093.05,-37.14468 c -16.03163,-5.02674 -24.29422,-21.1311 -24.28187,-47.32698 0.009,-19.9914 4.55978,-35.94611 10.8804,-38.14949 6.28045,-2.18937 13.91326,-0.86144 19.68127,3.4241 4.72623,3.51151 6.94208,6.28094 9.83801,12.29574 5.61316,11.65849 6.01089,24.37454 1.49538,47.80948 -1.69774,8.81109 -3.21649,17.43767 -3.375,19.17017 l -0.28819,3.15 -5.85,0.16623 c -3.2175,0.0914 -6.8625,-0.15123 -8.1,-0.53925 z m 1480.54996,-7.80124 c -4.1801,-0.6497 -14.71006,-1.618 -23.40001,-2.15176 -17.955,-1.10285 -26.92827,-2.20798 -34.69995,-4.27358 -5.56344,-1.47867 -12.15,-4.36934 -12.15,-5.33229 0,-2.41879 19.63431,-36.06524 30.90942,-52.96811 44.62894,-66.9045 100.24804,-127.00136 193.64054,-209.2299 28.2571,-24.87926 36.8151,-32.88173 70.1858,-65.63006 16.3428,-16.03798 35.3893,-34.46548 42.3255,-40.95 40.7379,-38.08508 94.9903,-80.20857 164.6887,-127.86996 14.355,-9.81628 29.745,-20.53578 34.2,-23.82113 15.9164,-11.73746 32.5507,-23.26663 41.8689,-29.01912 5.208,-3.21502 18.168,-11.52353 28.8,-18.46336 44.5312,-29.06657 82.5217,-50.52582 115.3994,-65.18433 20.8996,-9.31804 54.4231,-23.32059 70.8817,-29.60686 54.1069,-20.66567 90.7865,-26.78688 115.8221,-19.32877 4.7495,1.41486 15.6721,8.15843 16.2474,10.03101 0.4661,1.51746 -19.0882,11.61703 -25.8707,13.36189 -17.1116,4.40217 -28.643,8.98954 -48.0623,19.12009 -36.3315,18.95324 -62.6975,36.86405 -167.4865,113.7762 -83.1897,61.05894 -178.7849,132.23622 -213.3,158.8167 -73.2092,56.37935 -148.0542,119.05462 -208.35,174.47253 -32.7503,30.10094 -95.1813,91.59287 -111.5021,109.82507 -15.4524,17.26214 -34.6945,43.29095 -59.0486,79.875 -6.8098,10.22963 -11.1496,15.93131 -12.0669,15.85352 -0.7878,-0.0669 -4.8524,-0.65307 -9.0324,-1.30278 z M 865.50038,770.55675 c -2.48661,-0.39585 -6.92046,-1.41723 -9.85302,-2.26973 -12.82851,-3.72937 -60.38505,-23.90426 -82.82592,-35.13721 -13.04037,-6.52749 -16.18965,-8.46013 -16.14717,-9.90906 0.0828,-2.81551 23.61051,-38.47464 39.48903,-59.85 38.36592,-51.64758 83.74572,-101.00797 161.60814,-175.78368 18.0675,-17.35125 53.50496,-52.04666 78.74996,-77.10092 51.1045,-50.71831 61.7227,-60.99479 83.25,-80.57077 54.7397,-49.77776 86.505,-74.36834 157.1355,-121.64386 73.3285,-49.08139 185.9363,-119.750955 244.5343,-153.462975 64.0166,-36.829468 137.7431,-50.8971591 178.2867,-34.018771 13.7863,5.739228 24.1234,14.055994 32.1791,25.889676 l 4.4648,6.558694 -6.1252,2.744307 c -3.3688,1.509372 -11.5927,5.192883 -18.2752,8.18559 -35.218,15.772059 -78.2397,38.100929 -108.9982,56.571509 -68.5083,41.13946 -216.9333,143.93107 -285.4554,197.69188 -68.5452,53.77894 -182.0903,158.26708 -236.2944,217.44615 -58.7805,64.17562 -130.75996,153.38636 -172.37344,213.63821 -7.87842,11.40703 -13.15656,16.40792 -20.13696,19.07918 -5.46057,2.08963 -16.48881,3.01216 -23.21262,1.94178 z M 709.37144,712.3504 c -3.2175,-0.70342 -12.5325,-3.4764 -20.7,-6.16218 -8.1675,-2.68577 -17.17875,-5.34264 -20.025,-5.90415 -6.09597,-1.20262 -6.01848,-0.87807 -2.94678,-12.34343 8.09244,-30.20572 26.01468,-62.50985 54.14112,-97.58732 13.58199,-16.93868 29.5326,-34.34532 58.34898,-63.67544 14.88015,-15.14542 33.37263,-34.42213 41.09445,-42.83713 13.4082,-14.61187 34.54425,-35.42628 84.03723,-82.75829 12.375,-11.83469 35.27217,-34.20178 50.88258,-49.70465 15.61032,-15.50288 28.638,-28.18706 28.9503,-28.18706 0.31239,0 2.32272,0.75139 4.46751,1.66975 9.60183,4.11137 19.15267,3.09366 32.69957,-3.48435 9.1743,-4.45476 16.9001,-10.3433 37.7468,-28.77013 18.4942,-16.34736 29.4197,-24.6338 38.3032,-29.0511 5.2096,-2.59046 6.6875,-2.90919 13.5,-2.91153 7.0905,-0.003 8.0121,0.21749 12.6,3.00716 4.9711,3.02259 10.8623,9.57281 10.7282,11.92828 -0.04,0.69406 -12.0882,11.96004 -26.775,25.03552 -137.75992,122.64646 -260.48212,251.37073 -364.24492,382.0595 -13.38804,16.86209 -24.93054,30.7252 -25.65,30.80692 -0.71955,0.0817 -3.94074,-0.42694 -7.15824,-1.13037 z m -108.9,-26.58458 c -4.2075,-1.4343 -20.0025,-5.66544 -35.1,-9.40254 -49.67991,-12.29731 -63.71154,-16.72954 -80.81136,-25.52632 -10.54656,-5.42549 -14.69412,-8.72415 -17.96454,-14.28747 -2.10645,-3.58326 -2.45844,-5.14502 -2.36844,-10.50874 0.18306,-10.92345 4.7655,-19.29755 27.27792,-49.84953 15.1812,-20.60267 22.17573,-36.6512 23.18814,-53.20417 0.59013,-9.64756 -0.64557,-16.65623 -5.03586,-28.56333 l -2.63079,-7.1351 1.76778,-3.94834 c 6.50304,-14.52504 15.85692,-15.96604 28.91466,-4.45441 2.35809,2.0789 9.49086,9.93425 15.85053,17.45633 6.35967,7.52209 13.50072,15.38211 15.86898,17.46671 7.99893,7.04095 18.23427,8.32012 30.06558,3.75748 8.77392,-3.38359 16.69635,-8.89658 29.23488,-20.34369 19.92483,-18.19059 25.31925,-21.93195 31.62177,-21.93195 4.45941,0 6.13953,1.10008 8.91612,5.83796 9.71694,16.58069 12.25458,51.42305 5.80203,79.66204 -5.86062,25.64821 -16.85025,48.97658 -45.78939,97.2 -11.84112,19.73174 -18.62271,30.19024 -19.62558,30.26644 -0.84285,0.0641 -4.97493,-1.05707 -9.18243,-2.49137 z M -469.56154,675.5575 c -6.53966,-1.58056 -24.03085,-10.39757 -37.97,-19.14001 -27.64158,-17.33642 -78.09226,-56.30433 -81.7541,-63.14655 -1.39323,-2.60327 -1.14494,-11.10073 0.46819,-16.02373 2.22263,-6.78309 13.07365,-28.6784 18.77525,-37.88491 19.05491,-30.76842 43.7232,-54.56614 70.50497,-68.01675 22.20742,-11.15323 42.24367,-15.8548 67.56706,-15.8548 24.20452,0 42.46489,5.76563 57.13475,18.04003 11.70004,9.78953 20.1827,25.43403 21.57192,39.78497 0.48552,5.01553 0.56129,4.99204 -9.36544,2.90389 -15.28438,-3.21517 -28.87319,-2.61918 -43.15602,1.89276 -13.91309,4.39514 -23.0303,12.32412 -35.31726,30.71443 -12.23476,18.31216 -18.62634,36.80128 -18.62634,53.88101 0,7.86872 0.50815,11.18269 3.32887,21.70959 3.16499,11.81176 3.33113,13.13219 3.375,26.82332 0.0447,13.95006 -0.0316,14.55827 -2.44124,19.46498 -2.0431,4.16034 -2.98747,5.16499 -5.2875,5.625 -3.28963,0.65792 -2.65685,0.71347 -8.80811,-0.77323 z m 875.63298,-67.68705 c -8.57844,-1.43041 -27.49014,-6.74071 -49.05,-13.77294 -44.48448,-14.50964 -65.75166,-18.90642 -91.35,-18.88573 -8.12871,0.006 -17.51787,0.5853 -22.5,1.38687 -17.22087,2.77066 -15.58917,2.73779 -14.86143,0.29937 1.18683,-3.97697 7.73847,-15.51052 13.47507,-23.72144 32.4981,-46.51546 91.10313,-95.03762 124.13952,-102.78164 7.98075,-1.87074 21.83481,-3.64513 37.89684,-4.85371 59.00481,-4.4398 82.20204,12.22252 80.25948,57.64952 -0.58752,13.7398 -3.52872,30.93151 -8.16066,47.7 -5.74407,20.79472 -12.67137,34.58108 -22.15089,44.08369 -10.24569,10.27073 -19.06398,13.59665 -35.51202,13.39375 -5.46471,-0.0674 -10.94841,-0.29139 -12.18591,-0.49774 z m -78.3,-168.4595 c -17.25624,-7.78661 -30.41082,-17.06854 -46.66401,-32.92648 -16.20891,-15.81472 -25.09443,-27.32895 -33.80994,-43.81222 -6.66648,-12.60816 -11.09988,-26.18839 -12.42729,-38.0666 -1.36422,-12.20811 0.25668,-21.64332 5.65146,-32.8974 3.09042,-6.44691 4.99509,-8.95694 11.96442,-15.7675 6.70275,-6.54993 10.0377,-9.00953 17.42733,-12.85281 20.79513,-10.81535 51.15276,-17.85904 79.45803,-18.43616 l 10.35,-0.21103 0.54567,9.9 c 0.30015,5.445 1.27458,12.46621 2.1654,15.60269 2.16918,7.6371 7.43526,15.5574 13.0041,19.55821 2.49417,1.79187 4.53483,3.37489 4.53483,3.51782 0,0.14292 -2.60451,1.95678 -5.78781,4.03079 -19.61838,12.78184 -23.73363,29.04389 -12.87855,50.89049 1.47582,2.97 7.54569,12.84524 13.48866,21.94499 19.88667,30.44962 24.19488,44.17947 17.60913,56.11811 l -2.09754,3.80239 -8.0919,1.14334 c -10.09998,1.42707 -23.92245,4.84149 -35.84421,8.85421 -5.03127,1.69347 -9.55278,3.07455 -10.04778,3.06907 -0.495,-0.005 -4.3425,-1.56334 -8.55,-3.46191 z m 76.05,-63.96647 c -9.65898,-2.36829 -19.06686,-11.11579 -28.05057,-26.08163 l -5.55057,-9.2466 1.3095,-4.63775 c 0.72027,-2.55077 3.08862,-8.29178 5.26302,-12.75784 5.18706,-10.65364 12.44979,-18.27153 21.49335,-22.54432 6.46371,-3.05385 17.96472,-5.66166 20.56635,-4.66331 1.04013,0.39914 1.55529,2.55258 2.02887,8.48134 1.16514,14.58491 3.89826,21.64652 11.48184,29.66501 l 4.50882,4.76744 -4.1409,5.5087 c -5.65695,7.5253 -9.52281,15.97883 -10.87911,23.78906 -0.62487,3.59836 -1.4175,6.99781 -1.76148,7.55433 -0.69651,1.12702 -11.88351,1.24088 -16.26912,0.16557 z m 45.87984,-51.46841 c -5.64849,-5.20658 -9.54837,-13.48286 -10.12032,-21.47728 -0.51147,-7.14746 -0.29034,-7.32724 5.67774,-4.61634 4.10526,1.86475 7.94511,6.00761 9.89604,10.67687 1.31364,3.14387 1.82736,14.95337 0.7704,17.70782 -0.82134,2.14043 -1.81179,1.77584 -6.22386,-2.29107 z m -60.17643,-44.96479 c -1.31418,-1.0337 -2.93823,-2.95745 -3.60909,-4.275 -1.48311,-2.91275 -6.17832,-22.71152 -5.53788,-23.35195 0.62388,-0.62386 6.22593,3.17093 12.13974,8.22338 2.69298,2.30067 5.28048,4.18304 5.75001,4.18304 1.56213,0 -0.0216,10.5933 -2.08224,13.92736 -2.268,3.66978 -3.36771,3.88331 -6.66054,1.29317 z"
         id="path3668"
         inkscape:connector-curvature="0" />
      <path
         style="fill:#b01217"
         d="m 671.03486,1158.6957 c -0.86994,-4.6369 0.24075,-20.6539 1.77327,-25.5733 8.37792,-26.8935 34.81461,-49.1645 82.47996,-69.4837 15.67557,-6.6824 57.34764,-20.4479 61.90128,-20.4479 2.00232,0 0.78957,11.8449 -1.96092,19.1524 -5.50971,14.6378 -21.01491,34.2046 -36.41868,45.9583 -8.60733,6.5679 -53.19018,31.4111 -77.61978,43.2527 -16.74918,8.1187 -22.72545,10.4366 -26.90919,10.4366 -2.31264,0 -2.70189,-0.3952 -3.24594,-3.2951 z m -390.51342,-51.6131 c -17.52354,-1.0851 -36.44532,-3.317 -49.69395,-5.8618 -10.95261,-2.1038 -11.34427,-2.261 -16.10844,-6.4681 -23.04574,-20.3509 -41.37618,-34.411 -65.14761,-49.9705 -22.31923,-14.609 -35.30385,-22.3678 -83.25,-49.74532 -64.731033,-36.96183 -82.159362,-47.43585 -115.2,-69.23268 -30.983904,-20.43999 -65.31523,-45.66042 -75.917,-55.77003 -21.59726,-20.59475 -37.71444,-53.45862 -44.44545,-90.62692 -1.79144,-9.89222 -2.02309,-14.14491 -2.02988,-37.2665 -0.01,-33.44512 1.81918,-46.54881 10.01768,-71.77055 10.38805,-31.95759 25.6376,-57.63236 46.72718,-78.67181 24.672306,-24.61366 53.119128,-39.42489 88.14747,-45.89519 13.815891,-2.55202 51.550929,-2.34004 70.845615,0.39799 52.573662,7.46048 94.828445,26.8825 136.604385,62.78894 33.83342,29.07983 70.07022,74.3333 105.53994,131.80099 2.29149,3.7127 7.46802,10.5977 11.50344,15.3 4.03533,4.70229 11.23632,13.61213 16.00218,19.79963 24.79752,32.19466 28.03554,35.79424 63.25452,70.31743 19.00242,18.62705 37.38492,36.38054 40.84992,39.45215 7.98651,7.07967 24.86898,19.67202 35.21772,26.26821 9.2826,5.9166 21.81807,16.83324 46.03464,40.08969 35.80704,34.38729 89.26488,92.36317 94.5513,102.54227 0.87849,1.6915 0.59877,2.1942 -2.35332,4.2295 -1.84266,1.2704 -7.93233,4.1471 -13.53249,6.3926 -44.39745,17.8023 -131.92614,34.6511 -210.76785,40.5716 -22.34133,1.6777 -69.54678,2.3997 -86.85,1.3284 z m 508.89564,-97.7583 c -9.85725,-10.32328 -37.23516,-50.47588 -44.04177,-64.59202 -3.97881,-8.25156 -9.00387,-22.99104 -9.00387,-26.41014 0,-1.16388 1.37241,-1.29924 9.225,-0.9099 7.20576,0.3573 11.09322,1.09476 17.75997,3.36924 26.22132,8.94564 49.12974,22.84002 66.66327,40.43223 12.8223,12.86523 19.68471,24.5295 19.73043,33.53652 0.0189,3.77748 -0.32328,4.49352 -3.33711,6.97777 -7.281,6.0017 -27.67734,12.3596 -42.54156,13.2612 l -8.55,0.5185 -5.90436,-6.1834 z M 1011.4758,973.21575 C 993.63275,954.066 957.09365,918.26508 945.98441,909.04737 907.36586,877.00458 869.91128,857.78338 824.21504,846.55702 c -25.19037,-6.18862 -38.10321,-8.05158 -75.2436,-10.85553 -43.21575,-3.26259 -55.25514,-6.51322 -89.74656,-24.23153 -31.24521,-16.05067 -38.24676,-21.00733 -60.10344,-42.54944 -16.08156,-15.85011 -20.30886,-18.92621 -35.33481,-25.71271 -19.02096,-8.59086 -25.74162,-9.8571 -74.95398,-14.12203 -97.68024,-8.46536 -143.87715,-17.94497 -185.16753,-37.99635 -35.37999,-17.18118 -56.36025,-39.33338 -64.66167,-68.27348 -1.29906,-4.52897 -1.99602,-8.48799 -1.56321,-8.87966 1.35432,-1.22532 20.2185,-5.35417 29.1312,-6.37598 11.93103,-1.36787 34.34967,-1.09911 45.75861,0.54855 30.94299,4.46875 62.26929,17.5073 106.51005,44.33132 8.07471,4.89587 23.40783,14.19354 34.07364,20.66152 31.85442,19.31729 50.74308,28.48324 72.51525,35.18884 14.36805,4.4252 62.38152,14.95297 142.09245,31.15619 25.245,5.13166 50.1525,10.34071 55.35,11.57565 20.80494,4.94332 43.24734,13.41854 89.1,33.64809 57.59811,25.41143 80.88417,34.01835 113.58153,41.98156 33.74802,8.21908 52.04016,9.97998 94.76843,9.12295 62.7375,-1.25837 140.9543,5.96656 198.9,18.37252 12.9781,2.77856 31.7393,7.63259 32.5207,8.41397 0.5776,0.57753 -6.8535,15.34725 -11.063,21.98862 -20.3045,32.03388 -59.2,55.97109 -119.5577,73.5786 -18.495,5.39541 -95.4474,24.76206 -98.3906,24.76206 -1.689,0 -4.4584,-2.38059 -11.255,-9.675 z m -289.50436,-8.45388 c -22.50981,-10.37196 -53.48934,-17.78598 -116.1,-27.78516 -40.31559,-6.43851 -58.45896,-9.73566 -74.43693,-13.527 -50.26383,-11.92716 -83.97486,-29.70018 -106.61391,-56.20896 l -6.14898,-7.2 -9e-5,-8.23438 -9e-5,-8.23437 11.4534,-0.66061 c 25.55982,-1.47423 73.48617,0.51166 99.58167,4.1263 88.79553,12.29962 155.74797,46.48117 185.69124,94.80199 5.01786,8.09757 13.86702,26.10684 12.62043,25.68438 -0.10818,-0.0369 -2.82924,-1.27962 -6.04674,-2.76219 z m -1197.45,-156.79354 c -5.05945,-2.36652 -11.06605,-8.42457 -13.94151,-14.06094 -3.84166,-7.53028 -5.40849,-16.41861 -5.40849,-30.68143 0,-14.90653 1.46741,-24.5311 4.87493,-31.97411 2.68694,-5.86905 4.86817,-6.94601 13.15404,-6.49465 9.84036,0.53603 17.42964,6.86266 22.47232,18.73355 1.77955,4.18921 2.15949,6.88658 2.47205,17.55 0.34085,11.62912 0.12109,13.86909 -2.85201,29.07017 -1.77174,9.05859 -3.22133,17.25984 -3.22133,18.225 0,1.57922 -0.65298,1.75395 -6.525,1.74604 -4.94392,-0.006 -7.6154,-0.51882 -11.025,-2.11363 z M 865.50038,770.55675 c -2.48661,-0.39585 -6.92046,-1.41723 -9.85302,-2.26973 -12.82851,-3.72937 -60.38505,-23.90426 -82.82592,-35.13721 -13.04037,-6.52749 -16.18965,-8.46013 -16.14717,-9.90906 0.0828,-2.81551 23.61051,-38.47464 39.48903,-59.85 38.36592,-51.64758 83.74572,-101.00797 161.60814,-175.78368 18.0675,-17.35125 53.50496,-52.04666 78.74996,-77.10092 51.1045,-50.71831 61.7227,-60.99479 83.25,-80.57077 54.7397,-49.77776 86.505,-74.36834 157.1355,-121.64386 73.3285,-49.08139 185.9363,-119.750955 244.5343,-153.462975 64.0166,-36.829468 137.7431,-50.8971591 178.2867,-34.018771 13.7863,5.739228 24.1234,14.055994 32.1791,25.889676 l 4.4648,6.558694 -6.1252,2.744307 c -3.3688,1.509372 -11.5927,5.192883 -18.2752,8.18559 -35.218,15.772059 -78.2397,38.100929 -108.9982,56.571509 -68.5083,41.13946 -216.9333,143.93107 -285.4554,197.69188 -68.5452,53.77894 -182.0903,158.26708 -236.2944,217.44615 -58.7805,64.17562 -130.75996,153.38636 -172.37344,213.63821 -7.87842,11.40703 -13.15656,16.40792 -20.13696,19.07918 -5.46057,2.08963 -16.48881,3.01216 -23.21262,1.94178 z M 600.47144,685.76582 c -4.2075,-1.4343 -20.0025,-5.66544 -35.1,-9.40254 -49.67991,-12.29731 -63.71154,-16.72954 -80.81136,-25.52632 -10.54656,-5.42549 -14.69412,-8.72415 -17.96454,-14.28747 -2.10645,-3.58326 -2.45844,-5.14502 -2.36844,-10.50874 0.18306,-10.92345 4.7655,-19.29755 27.27792,-49.84953 15.1812,-20.60267 22.17573,-36.6512 23.18814,-53.20417 0.59013,-9.64756 -0.64557,-16.65623 -5.03586,-28.56333 l -2.63079,-7.1351 1.76778,-3.94834 c 6.50304,-14.52504 15.85692,-15.96604 28.91466,-4.45441 2.35809,2.0789 9.49086,9.93425 15.85053,17.45633 6.35967,7.52209 13.50072,15.38211 15.86898,17.46671 7.99893,7.04095 18.23427,8.32012 30.06558,3.75748 8.77392,-3.38359 16.69635,-8.89658 29.23488,-20.34369 19.92483,-18.19059 25.31925,-21.93195 31.62177,-21.93195 4.45941,0 6.13953,1.10008 8.91612,5.83796 9.71694,16.58069 12.25458,51.42305 5.80203,79.66204 -5.86062,25.64821 -16.85025,48.97658 -45.78939,97.2 -11.84112,19.73174 -18.62271,30.19024 -19.62558,30.26644 -0.84285,0.0641 -4.97493,-1.05707 -9.18243,-2.49137 z M -469.56154,675.5575 c -6.53966,-1.58056 -24.03085,-10.39757 -37.97,-19.14001 -27.64158,-17.33642 -78.09226,-56.30433 -81.7541,-63.14655 -1.39323,-2.60327 -1.14494,-11.10073 0.46819,-16.02373 2.22263,-6.78309 13.07365,-28.6784 18.77525,-37.88491 19.05491,-30.76842 43.7232,-54.56614 70.50497,-68.01675 22.20742,-11.15323 42.24367,-15.8548 67.56706,-15.8548 24.20452,0 42.46489,5.76563 57.13475,18.04003 11.70004,9.78953 20.1827,25.43403 21.57192,39.78497 0.48552,5.01553 0.56129,4.99204 -9.36544,2.90389 -15.28438,-3.21517 -28.87319,-2.61918 -43.15602,1.89276 -13.91309,4.39514 -23.0303,12.32412 -35.31726,30.71443 -12.23476,18.31216 -18.62634,36.80128 -18.62634,53.88101 0,7.86872 0.50815,11.18269 3.32887,21.70959 3.16499,11.81176 3.33113,13.13219 3.375,26.82332 0.0447,13.95006 -0.0316,14.55827 -2.44124,19.46498 -2.0431,4.16034 -2.98747,5.16499 -5.2875,5.625 -3.28963,0.65792 -2.65685,0.71347 -8.80811,-0.77323 z M 327.77144,439.41095 c -17.25624,-7.78661 -30.41082,-17.06854 -46.66401,-32.92648 -16.20891,-15.81472 -25.09443,-27.32895 -33.80994,-43.81222 -6.66648,-12.60816 -11.09988,-26.18839 -12.42729,-38.0666 -1.36422,-12.20811 0.25668,-21.64332 5.65146,-32.8974 3.09042,-6.44691 4.99509,-8.95694 11.96442,-15.7675 6.70275,-6.54993 10.0377,-9.00953 17.42733,-12.85281 20.79513,-10.81535 51.15276,-17.85904 79.45803,-18.43616 l 10.35,-0.21103 0.54567,9.9 c 0.30015,5.445 1.27458,12.46621 2.1654,15.60269 2.16918,7.6371 7.43526,15.5574 13.0041,19.55821 2.49417,1.79187 4.53483,3.37489 4.53483,3.51782 0,0.14292 -2.60451,1.95678 -5.78781,4.03079 -19.61838,12.78184 -23.73363,29.04389 -12.87855,50.89049 1.47582,2.97 7.54569,12.84524 13.48866,21.94499 19.88667,30.44962 24.19488,44.17947 17.60913,56.11811 l -2.09754,3.80239 -8.0919,1.14334 c -10.09998,1.42707 -23.92245,4.84149 -35.84421,8.85421 -5.03127,1.69347 -9.55278,3.07455 -10.04778,3.06907 -0.495,-0.005 -4.3425,-1.56334 -8.55,-3.46191 z m 76.05,-63.96647 c -9.65898,-2.36829 -19.06686,-11.11579 -28.05057,-26.08163 l -5.55057,-9.2466 1.3095,-4.63775 c 0.72027,-2.55077 3.08862,-8.29178 5.26302,-12.75784 5.18706,-10.65364 12.44979,-18.27153 21.49335,-22.54432 6.46371,-3.05385 17.96472,-5.66166 20.56635,-4.66331 1.04013,0.39914 1.55529,2.55258 2.02887,8.48134 1.16514,14.58491 3.89826,21.64652 11.48184,29.66501 l 4.50882,4.76744 -4.1409,5.5087 c -5.65695,7.5253 -9.52281,15.97883 -10.87911,23.78906 -0.62487,3.59836 -1.4175,6.99781 -1.76148,7.55433 -0.69651,1.12702 -11.88351,1.24088 -16.26912,0.16557 z m 44.70381,-53.60673 c -5.35896,-5.8636 -8.25381,-12.81879 -8.25381,-19.83076 0,-5.22276 0.25011,-5.45757 4.21641,-3.95898 5.34528,2.01957 9.87948,8.02049 11.17719,14.79274 0.93582,4.88344 -0.027,13.95 -1.48149,13.95 -0.62235,0 -3.16854,-2.22885 -5.6583,-4.953 z m -60.23718,-44.88773 c -2.20086,-2.50672 -3.23433,-5.21781 -5.18256,-13.5955 -1.33839,-5.75542 -2.19681,-10.70102 -1.90764,-10.99022 0.28926,-0.28921 2.79243,1.25218 5.56263,3.42531 2.7702,2.17313 6.41088,4.96364 8.09028,6.20114 2.75472,2.02984 3.05676,2.6917 3.08709,6.76404 0.0387,5.26631 -2.45124,10.65517 -5.10948,11.05614 -1.1358,0.17133 -2.79702,-0.87543 -4.54032,-2.86091 z"
         id="path3666"
         inkscape:connector-curvature="0" />
      <path
         style="fill:#00725f"
         d="m 671.03486,1158.6957 c -0.86994,-4.6369 0.24075,-20.6539 1.77327,-25.5733 8.37792,-26.8935 34.81461,-49.1645 82.47996,-69.4837 15.67557,-6.6824 57.34764,-20.4479 61.90128,-20.4479 2.00232,0 0.78957,11.8449 -1.96092,19.1524 -5.50971,14.6378 -21.01491,34.2046 -36.41868,45.9583 -8.60733,6.5679 -53.19018,31.4111 -77.61978,43.2527 -16.74918,8.1187 -22.72545,10.4366 -26.90919,10.4366 -2.31264,0 -2.70189,-0.3952 -3.24594,-3.2951 z m -390.51342,-51.6131 c -17.52354,-1.0851 -36.44532,-3.317 -49.69395,-5.8618 -10.95261,-2.1038 -11.34427,-2.261 -16.10844,-6.4681 -23.04574,-20.3509 -41.37618,-34.411 -65.14761,-49.9705 -22.31923,-14.609 -35.30385,-22.3678 -83.25,-49.74532 -64.731033,-36.96183 -82.159362,-47.43585 -115.2,-69.23268 -30.983904,-20.43999 -65.31523,-45.66042 -75.917,-55.77003 -21.59726,-20.59475 -37.71444,-53.45862 -44.44545,-90.62692 -1.79144,-9.89222 -2.02309,-14.14491 -2.02988,-37.2665 -0.01,-33.44512 1.81918,-46.54881 10.01768,-71.77055 10.38805,-31.95759 25.6376,-57.63236 46.72718,-78.67181 24.672306,-24.61366 53.119128,-39.42489 88.14747,-45.89519 13.815891,-2.55202 51.550929,-2.34004 70.845615,0.39799 52.573662,7.46048 94.828445,26.8825 136.604385,62.78894 33.83342,29.07983 70.07022,74.3333 105.53994,131.80099 2.29149,3.7127 7.46802,10.5977 11.50344,15.3 4.03533,4.70229 11.23632,13.61213 16.00218,19.79963 24.79752,32.19466 28.03554,35.79424 63.25452,70.31743 19.00242,18.62705 37.38492,36.38054 40.84992,39.45215 7.98651,7.07967 24.86898,19.67202 35.21772,26.26821 9.2826,5.9166 21.81807,16.83324 46.03464,40.08969 35.80704,34.38729 89.26488,92.36317 94.5513,102.54227 0.87849,1.6915 0.59877,2.1942 -2.35332,4.2295 -1.84266,1.2704 -7.93233,4.1471 -13.53249,6.3926 -44.39745,17.8023 -131.92614,34.6511 -210.76785,40.5716 -22.34133,1.6777 -69.54678,2.3997 -86.85,1.3284 z m 508.89564,-97.7583 c -9.85725,-10.32328 -37.23516,-50.47588 -44.04177,-64.59202 -3.97881,-8.25156 -9.00387,-22.99104 -9.00387,-26.41014 0,-1.16388 1.37241,-1.29924 9.225,-0.9099 7.20576,0.3573 11.09322,1.09476 17.75997,3.36924 26.22132,8.94564 49.12974,22.84002 66.66327,40.43223 12.8223,12.86523 19.68471,24.5295 19.73043,33.53652 0.0189,3.77748 -0.32328,4.49352 -3.33711,6.97777 -7.281,6.0017 -27.67734,12.3596 -42.54156,13.2612 l -8.55,0.5185 -5.90436,-6.1834 z M 1011.4758,973.21575 C 993.63275,954.066 957.09365,918.26508 945.98441,909.04737 907.36586,877.00458 869.91128,857.78338 824.21504,846.55702 c -25.19037,-6.18862 -38.10321,-8.05158 -75.2436,-10.85553 -43.21575,-3.26259 -55.25514,-6.51322 -89.74656,-24.23153 -31.24521,-16.05067 -38.24676,-21.00733 -60.10344,-42.54944 -16.08156,-15.85011 -20.30886,-18.92621 -35.33481,-25.71271 -19.02096,-8.59086 -25.74162,-9.8571 -74.95398,-14.12203 -97.68024,-8.46536 -143.87715,-17.94497 -185.16753,-37.99635 -35.37999,-17.18118 -56.36025,-39.33338 -64.66167,-68.27348 -1.29906,-4.52897 -1.99602,-8.48799 -1.56321,-8.87966 1.35432,-1.22532 20.2185,-5.35417 29.1312,-6.37598 11.93103,-1.36787 34.34967,-1.09911 45.75861,0.54855 30.94299,4.46875 62.26929,17.5073 106.51005,44.33132 8.07471,4.89587 23.40783,14.19354 34.07364,20.66152 31.85442,19.31729 50.74308,28.48324 72.51525,35.18884 14.36805,4.4252 62.38152,14.95297 142.09245,31.15619 25.245,5.13166 50.1525,10.34071 55.35,11.57565 20.80494,4.94332 43.24734,13.41854 89.1,33.64809 57.59811,25.41143 80.88417,34.01835 113.58153,41.98156 33.74802,8.21908 52.04016,9.97998 94.76843,9.12295 62.7375,-1.25837 140.9543,5.96656 198.9,18.37252 12.9781,2.77856 31.7393,7.63259 32.5207,8.41397 0.5776,0.57753 -6.8535,15.34725 -11.063,21.98862 -20.3045,32.03388 -59.2,55.97109 -119.5577,73.5786 -18.495,5.39541 -95.4474,24.76206 -98.3906,24.76206 -1.689,0 -4.4584,-2.38059 -11.255,-9.675 z m -289.50436,-8.45388 c -22.50981,-10.37196 -53.48934,-17.78598 -116.1,-27.78516 -40.31559,-6.43851 -58.45896,-9.73566 -74.43693,-13.527 -50.26383,-11.92716 -83.97486,-29.70018 -106.61391,-56.20896 l -6.14898,-7.2 -9e-5,-8.23438 -9e-5,-8.23437 11.4534,-0.66061 c 25.55982,-1.47423 73.48617,0.51166 99.58167,4.1263 88.79553,12.29962 155.74797,46.48117 185.69124,94.80199 5.01786,8.09757 13.86702,26.10684 12.62043,25.68438 -0.10818,-0.0369 -2.82924,-1.27962 -6.04674,-2.76219 z m -1197.45,-156.79354 c -5.05945,-2.36652 -11.06605,-8.42457 -13.94151,-14.06094 -3.84166,-7.53028 -5.40849,-16.41861 -5.40849,-30.68143 0,-14.90653 1.46741,-24.5311 4.87493,-31.97411 2.68694,-5.86905 4.86817,-6.94601 13.15404,-6.49465 9.84036,0.53603 17.42964,6.86266 22.47232,18.73355 1.77955,4.18921 2.15949,6.88658 2.47205,17.55 0.34085,11.62912 0.12109,13.86909 -2.85201,29.07017 -1.77174,9.05859 -3.22133,17.25984 -3.22133,18.225 0,1.57922 -0.65298,1.75395 -6.525,1.74604 -4.94392,-0.006 -7.6154,-0.51882 -11.025,-2.11363 z M 865.50038,770.55675 c -2.48661,-0.39585 -6.92046,-1.41723 -9.85302,-2.26973 -12.82851,-3.72937 -60.38505,-23.90426 -82.82592,-35.13721 -13.04037,-6.52749 -16.18965,-8.46013 -16.14717,-9.90906 0.0828,-2.81551 23.61051,-38.47464 39.48903,-59.85 38.36592,-51.64758 83.74572,-101.00797 161.60814,-175.78368 18.0675,-17.35125 53.50496,-52.04666 78.74996,-77.10092 51.1045,-50.71831 61.7227,-60.99479 83.25,-80.57077 54.7397,-49.77776 86.505,-74.36834 157.1355,-121.64386 73.3285,-49.08139 185.9363,-119.750955 244.5343,-153.462975 64.0166,-36.829468 137.7431,-50.8971591 178.2867,-34.018771 13.7863,5.739228 24.1234,14.055994 32.1791,25.889676 l 4.4648,6.558694 -6.1252,2.744307 c -3.3688,1.509372 -11.5927,5.192883 -18.2752,8.18559 -35.218,15.772059 -78.2397,38.100929 -108.9982,56.571509 -68.5083,41.13946 -216.9333,143.93107 -285.4554,197.69188 -68.5452,53.77894 -182.0903,158.26708 -236.2944,217.44615 -58.7805,64.17562 -130.75996,153.38636 -172.37344,213.63821 -7.87842,11.40703 -13.15656,16.40792 -20.13696,19.07918 -5.46057,2.08963 -16.48881,3.01216 -23.21262,1.94178 z M 600.47144,685.76582 c -4.2075,-1.4343 -20.0025,-5.66544 -35.1,-9.40254 -49.67991,-12.29731 -63.71154,-16.72954 -80.81136,-25.52632 -10.54656,-5.42549 -14.69412,-8.72415 -17.96454,-14.28747 -2.10645,-3.58326 -2.45844,-5.14502 -2.36844,-10.50874 0.18306,-10.92345 4.7655,-19.29755 27.27792,-49.84953 15.1812,-20.60267 22.17573,-36.6512 23.18814,-53.20417 0.59013,-9.64756 -0.64557,-16.65623 -5.03586,-28.56333 l -2.63079,-7.1351 1.76778,-3.94834 c 6.50304,-14.52504 15.85692,-15.96604 28.91466,-4.45441 2.35809,2.0789 9.49086,9.93425 15.85053,17.45633 6.35967,7.52209 13.50072,15.38211 15.86898,17.46671 7.99893,7.04095 18.23427,8.32012 30.06558,3.75748 8.77392,-3.38359 16.69635,-8.89658 29.23488,-20.34369 19.92483,-18.19059 25.31925,-21.93195 31.62177,-21.93195 4.45941,0 6.13953,1.10008 8.91612,5.83796 9.71694,16.58069 12.25458,51.42305 5.80203,79.66204 -5.86062,25.64821 -16.85025,48.97658 -45.78939,97.2 -11.84112,19.73174 -18.62271,30.19024 -19.62558,30.26644 -0.84285,0.0641 -4.97493,-1.05707 -9.18243,-2.49137 z m -272.7,-246.35487 c -17.25624,-7.78661 -30.41082,-17.06854 -46.66401,-32.92648 -16.20891,-15.81472 -25.09443,-27.32895 -33.80994,-43.81222 -6.66648,-12.60816 -11.09988,-26.18839 -12.42729,-38.0666 -1.36422,-12.20811 0.25668,-21.64332 5.65146,-32.8974 3.09042,-6.44691 4.99509,-8.95694 11.96442,-15.7675 6.70275,-6.54993 10.0377,-9.00953 17.42733,-12.85281 20.79513,-10.81535 51.15276,-17.85904 79.45803,-18.43616 l 10.35,-0.21103 0.54567,9.9 c 0.30015,5.445 1.27458,12.46621 2.1654,15.60269 2.16918,7.6371 7.43526,15.5574 13.0041,19.55821 2.49417,1.79187 4.53483,3.37489 4.53483,3.51782 0,0.14292 -2.60451,1.95678 -5.78781,4.03079 -19.61838,12.78184 -23.73363,29.04389 -12.87855,50.89049 1.47582,2.97 7.54569,12.84524 13.48866,21.94499 19.88667,30.44962 24.19488,44.17947 17.60913,56.11811 l -2.09754,3.80239 -8.0919,1.14334 c -10.09998,1.42707 -23.92245,4.84149 -35.84421,8.85421 -5.03127,1.69347 -9.55278,3.07455 -10.04778,3.06907 -0.495,-0.005 -4.3425,-1.56334 -8.55,-3.46191 z m 76.05,-63.96647 c -9.65898,-2.36829 -19.06686,-11.11579 -28.05057,-26.08163 l -5.55057,-9.2466 1.3095,-4.63775 c 0.72027,-2.55077 3.08862,-8.29178 5.26302,-12.75784 5.18706,-10.65364 12.44979,-18.27153 21.49335,-22.54432 6.46371,-3.05385 17.96472,-5.66166 20.56635,-4.66331 1.04013,0.39914 1.55529,2.55258 2.02887,8.48134 1.16514,14.58491 3.89826,21.64652 11.48184,29.66501 l 4.50882,4.76744 -4.1409,5.5087 c -5.65695,7.5253 -9.52281,15.97883 -10.87911,23.78906 -0.62487,3.59836 -1.4175,6.99781 -1.76148,7.55433 -0.69651,1.12702 -11.88351,1.24088 -16.26912,0.16557 z m 44.70381,-53.60673 c -5.35896,-5.8636 -8.25381,-12.81879 -8.25381,-19.83076 0,-5.22276 0.25011,-5.45757 4.21641,-3.95898 5.34528,2.01957 9.87948,8.02049 11.17719,14.79274 0.93582,4.88344 -0.027,13.95 -1.48149,13.95 -0.62235,0 -3.16854,-2.22885 -5.6583,-4.953 z m -60.23718,-44.88773 c -2.20086,-2.50672 -3.23433,-5.21781 -5.18256,-13.5955 -1.33839,-5.75542 -2.19681,-10.70102 -1.90764,-10.99022 0.28926,-0.28921 2.79243,1.25218 5.56263,3.42531 2.7702,2.17313 6.41088,4.96364 8.09028,6.20114 2.75472,2.02984 3.05676,2.6917 3.08709,6.76404 0.0387,5.26631 -2.45124,10.65517 -5.10948,11.05614 -1.1358,0.17133 -2.79702,-0.87543 -4.54032,-2.86091 z"
         id="path3664"
         inkscape:connector-curvature="0" />
      <path
         style="fill:#162a70"
         d="m 280.52144,1107.0826 c -17.52354,-1.0851 -36.44532,-3.317 -49.69395,-5.8618 -10.95261,-2.1038 -11.34427,-2.261 -16.10844,-6.4681 -23.04574,-20.3509 -41.37618,-34.411 -65.14761,-49.9705 -22.31923,-14.609 -35.30385,-22.3678 -83.25,-49.74532 -64.731033,-36.96183 -82.159362,-47.43585 -115.2,-69.23268 -30.983904,-20.43999 -65.31523,-45.66042 -75.917,-55.77003 -21.59726,-20.59475 -37.71444,-53.45862 -44.44545,-90.62692 -1.79144,-9.89222 -2.02309,-14.14491 -2.02988,-37.2665 -0.01,-33.44512 1.81918,-46.54881 10.01768,-71.77055 10.38805,-31.95759 25.6376,-57.63236 46.72718,-78.67181 24.672306,-24.61366 53.119128,-39.42489 88.14747,-45.89519 13.815891,-2.55202 51.550929,-2.34004 70.845615,0.39799 52.573662,7.46048 94.828445,26.8825 136.604385,62.78894 33.83342,29.07983 70.07022,74.3333 105.53994,131.80099 2.29149,3.7127 7.46802,10.5977 11.50344,15.3 4.03533,4.70229 11.23632,13.61213 16.00218,19.79963 24.79752,32.19466 28.03554,35.79424 63.25452,70.31743 19.00242,18.62705 37.38492,36.38054 40.84992,39.45215 7.98651,7.07967 24.86898,19.67202 35.21772,26.26821 9.2826,5.9166 21.81807,16.83324 46.03464,40.08969 35.80704,34.38729 89.26488,92.36317 94.5513,102.54227 0.87849,1.6915 0.59877,2.1942 -2.35332,4.2295 -1.84266,1.2704 -7.93233,4.1471 -13.53249,6.3926 -44.39745,17.8023 -131.92614,34.6511 -210.76785,40.5716 -22.34133,1.6777 -69.54678,2.3997 -86.85,1.3284 z m 508.89564,-97.7583 c -9.85725,-10.32328 -37.23516,-50.47588 -44.04177,-64.59202 -3.97881,-8.25156 -9.00387,-22.99104 -9.00387,-26.41014 0,-1.16388 1.37241,-1.29924 9.225,-0.9099 7.20576,0.3573 11.09322,1.09476 17.75997,3.36924 26.22132,8.94564 49.12974,22.84002 66.66327,40.43223 12.8223,12.86523 19.68471,24.5295 19.73043,33.53652 0.0189,3.77748 -0.32328,4.49352 -3.33711,6.97777 -7.281,6.0017 -27.67734,12.3596 -42.54156,13.2612 l -8.55,0.5185 -5.90436,-6.1834 z M -475.47856,807.96833 c -5.05945,-2.36652 -11.06605,-8.42457 -13.94151,-14.06094 -3.84166,-7.53028 -5.40849,-16.41861 -5.40849,-30.68143 0,-14.90653 1.46741,-24.5311 4.87493,-31.97411 2.68694,-5.86905 4.86817,-6.94601 13.15404,-6.49465 9.84036,0.53603 17.42964,6.86266 22.47232,18.73355 1.77955,4.18921 2.15949,6.88658 2.47205,17.55 0.34085,11.62912 0.12109,13.86909 -2.85201,29.07017 -1.77174,9.05859 -3.22133,17.25984 -3.22133,18.225 0,1.57922 -0.65298,1.75395 -6.525,1.74604 -4.94392,-0.006 -7.6154,-0.51882 -11.025,-2.11363 z m 803.25,-368.55738 c -17.25624,-7.78661 -30.41082,-17.06854 -46.66401,-32.92648 -16.20891,-15.81472 -25.09443,-27.32895 -33.80994,-43.81222 -6.66648,-12.60816 -11.09988,-26.18839 -12.42729,-38.0666 -1.36422,-12.20811 0.25668,-21.64332 5.65146,-32.8974 3.09042,-6.44691 4.99509,-8.95694 11.96442,-15.7675 6.70275,-6.54993 10.0377,-9.00953 17.42733,-12.85281 20.79513,-10.81535 51.15276,-17.85904 79.45803,-18.43616 l 10.35,-0.21103 0.54567,9.9 c 0.30015,5.445 1.27458,12.46621 2.1654,15.60269 2.16918,7.6371 7.43526,15.5574 13.0041,19.55821 2.49417,1.79187 4.53483,3.37489 4.53483,3.51782 0,0.14292 -2.60451,1.95678 -5.78781,4.03079 -19.61838,12.78184 -23.73363,29.04389 -12.87855,50.89049 1.47582,2.97 7.54569,12.84524 13.48866,21.94499 19.88667,30.44962 24.19488,44.17947 17.60913,56.11811 l -2.09754,3.80239 -8.0919,1.14334 c -10.09998,1.42707 -23.92245,4.84149 -35.84421,8.85421 -5.03127,1.69347 -9.55278,3.07455 -10.04778,3.06907 -0.495,-0.005 -4.3425,-1.56334 -8.55,-3.46191 z m 76.05,-63.96647 c -9.65898,-2.36829 -19.06686,-11.11579 -28.05057,-26.08163 l -5.55057,-9.2466 1.3095,-4.63775 c 0.72027,-2.55077 3.08862,-8.29178 5.26302,-12.75784 5.18706,-10.65364 12.44979,-18.27153 21.49335,-22.54432 6.46371,-3.05385 17.96472,-5.66166 20.56635,-4.66331 1.04013,0.39914 1.55529,2.55258 2.02887,8.48134 1.16514,14.58491 3.89826,21.64652 11.48184,29.66501 l 4.50882,4.76744 -4.1409,5.5087 c -5.65695,7.5253 -9.52281,15.97883 -10.87911,23.78906 -0.62487,3.59836 -1.4175,6.99781 -1.76148,7.55433 -0.69651,1.12702 -11.88351,1.24088 -16.26912,0.16557 z m 44.70381,-53.60673 c -5.35896,-5.8636 -8.25381,-12.81879 -8.25381,-19.83076 0,-5.22276 0.25011,-5.45757 4.21641,-3.95898 5.34528,2.01957 9.87948,8.02049 11.17719,14.79274 0.93582,4.88344 -0.027,13.95 -1.48149,13.95 -0.62235,0 -3.16854,-2.22885 -5.6583,-4.953 z m -60.23718,-44.88773 c -2.20086,-2.50672 -3.23433,-5.21781 -5.18256,-13.5955 -1.33839,-5.75542 -2.19681,-10.70102 -1.90764,-10.99022 0.28926,-0.28921 2.79243,1.25218 5.56263,3.42531 2.7702,2.17313 6.41088,4.96364 8.09028,6.20114 2.75472,2.02984 3.05676,2.6917 3.08709,6.76404 0.0387,5.26631 -2.45124,10.65517 -5.10948,11.05614 -1.1358,0.17133 -2.79702,-0.87543 -4.54032,-2.86091 z"
         id="path3662"
         inkscape:connector-curvature="0" />
    </g>
  </g>
</svg>
