<?xml version="1.0" encoding="utf-8"?>
<!-- Generator: Adobe Illustrator 16.0.0, SVG Export Plug-In . SVG Version: 6.00 Build 0)  -->
<!DOCTYPE svg PUBLIC "-//W3C//DTD SVG 1.1//EN" "http://www.w3.org/Graphics/SVG/1.1/DTD/svg11.dtd">
<svg version="1.1" id="Layer_1" xmlns="http://www.w3.org/2000/svg" xmlns:xlink="http://www.w3.org/1999/xlink" x="0px" y="0px"
	 width="1160px" height="550px" viewBox="0 0 1160 550" enable-background="new 0 0 1160 550" xml:space="preserve">
<rect opacity="0.8" fill="#00727C" enable-background="new    " width="1160" height="120"/>
<polygon fill="#9B9B23" points="0,25 31,2.199 86,18.699 104,5.497 125,11 168,19.801 203,13.199 229,0 264,16.5 323,27.497 
	361,7.699 452,19.801 522,7.699 646,25.299 686,10.5 724,14.5 757,23.101 843,19.8 897,10.997 938,29.699 967,32.997 995,15.398 
	1023,26.398 1062,18.699 1102,30.8 1127,16.5 1160,25 1160,598.169 1110,593.769 894,611.067 613,609.067 382.106,591.069 
	143.106,591.019 12,586.067 0,586.067 "/>
</svg>
