<?xml version="1.0" encoding="utf-8"?>
<!-- Generator: Adobe Illustrator 16.0.0, SVG Export Plug-In . SVG Version: 6.00 Build 0)  -->
<!DOCTYPE svg PUBLIC "-//W3C//DTD SVG 1.1//EN" "http://www.w3.org/Graphics/SVG/1.1/DTD/svg11.dtd">
<svg version="1.1" id="Layer_1" xmlns="http://www.w3.org/2000/svg" xmlns:xlink="http://www.w3.org/1999/xlink" x="0px" y="0px"
	 width="2000px" height="90px" viewBox="0 0 2000 90" enable-background="new 0 0 2000 90" xml:space="preserve">
<path fill-rule="evenodd" clip-rule="evenodd" fill="#FFFFFF" d="M0-10.685v14.71h935.566c6.34,0,13.915,0.303,21.991,0.383
	c7.9,0.08,16.986,0.158,22.365,7.456c8.115,11.009-5.677,21.946-9.69,32.058c-4.407,11.1-2.206,31.646,17.146,39.513
	c6.583,2.673,17.827,3.167,25.72,0.372c16.654-5.9,22.922-23.666,19.011-36.902c-3.449-11.673-19.434-24.43-9.319-36.157
	c5.478-6.354,14.715-6.638,21.62-6.71c8.104-0.088,17.272-0.012,23.763-0.012H2000v-14.71H0z"/>
<path fill-rule="evenodd" clip-rule="evenodd" fill="#706F6F" d="M0,4.031h935.566c6.34,0,13.915,0.303,21.991,0.383
	c7.9,0.08,16.986,0.158,22.365,7.456c8.115,11.009-5.677,21.946-9.69,32.058c-4.407,11.1-2.206,31.647,17.146,39.513
	c6.583,2.673,17.827,3.167,25.72,0.372c16.654-5.9,22.922-23.666,19.011-36.903c-3.449-11.673-19.434-24.43-9.319-36.157
	c5.478-6.354,14.715-6.638,21.62-6.71c8.104-0.088,17.272-0.012,23.763-0.012H2000v-4h-931.827c-1.93,0-4.098-0.006-6.405-0.013
	C1059.139,0.01,1056.329,0,1053.486,0c-3.062,0-6.16,0.011-9.118,0.042c-6.653,0.069-17.787,0.188-24.607,8.097
	c-8.815,10.223-2.209,20.903,3.1,29.484c2.298,3.715,4.469,7.224,5.413,10.419c3.364,11.385-1.992,26.856-16.511,32
	c-3,1.062-6.88,1.647-10.924,1.647c-4.537,0-8.895-0.713-11.954-1.954c-16.779-6.821-18.831-24.518-14.935-34.333
	c1.032-2.599,2.921-5.431,4.92-8.429c5.191-7.783,11.651-17.467,4.272-27.479c-6.552-8.889-17.057-8.995-25.544-9.082
	c-3.688-0.037-7.253-0.119-10.701-0.199c-4.042-0.093-7.859-0.184-11.33-0.184H0V4.031z"/>
</svg>
