<?xml version="1.0" encoding="utf-8"?>
<!-- Generator: Adobe Illustrator 16.0.0, SVG Export Plug-In . SVG Version: 6.00 Build 0)  -->
<!DOCTYPE svg PUBLIC "-//W3C//DTD SVG 1.1//EN" "http://www.w3.org/Graphics/SVG/1.1/DTD/svg11.dtd">
<svg version="1.1" xmlns="http://www.w3.org/2000/svg" xmlns:xlink="http://www.w3.org/1999/xlink" x="0px" y="0px" width="24px"
	 height="24px" viewBox="0 0 24 24" enable-background="new 0 0 24 24" xml:space="preserve">
<g id="Layer_1" display="none">
	<g display="inline">
		<path fill="#B5B49C" d="M13.741,5.627c2.334,0,4.233,1.901,4.233,4.233c0,2.336-1.899,4.236-4.233,4.236
			c-2.335,0-4.234-1.9-4.234-4.236C9.507,7.526,11.406,5.627,13.741,5.627z"/>
		<path fill="#B5B49C" d="M12,0C5.373,0,0,5.372,0,12c0,6.626,5.373,12,12,12s12-5.374,12-12C24,5.372,18.627,0,12,0z M3.507,17.997
			l4.53-4.531c-0.663-1.044-1.046-2.28-1.046-3.607C6.99,6.14,10.018,3.11,13.741,3.11c3.722,0,6.749,3.029,6.749,6.75
			c0,3.724-3.027,6.752-6.749,6.752c-1.261,0-2.439-0.348-3.45-0.949l-4.56,4.556L3.507,17.997z"/>
	</g>
</g>
<g id="Layer_3" display="none">
	<g display="inline">
		<path fill="#B5B49C" d="M6.312,6.306v10.756h10.755V9.239c-1.352,1.709-2.691,3.812-4.313,6.721
			c-1.758-2.071-2.931-3.394-5.091-5.394l1.078-1c1.266,0.61,2.064,1.077,3.485,2.087c1.775-2.012,3.156-3.365,4.841-4.645V6.306
			H6.312z"/>
		<path fill="#B5B49C" d="M17.067,7.009v2.23c0.76-0.961,1.524-1.797,2.345-2.578V5.387C18.544,5.94,17.774,6.473,17.067,7.009z"/>
		<path fill="#B5B49C" d="M12,0C5.373,0,0,5.372,0,12c0,6.626,5.373,12,12,12s12-5.374,12-12C24,5.372,18.627,0,12,0z M19.412,6.661
			v12.742H3.969V3.96h15.443v1.427c0.176-0.112,0.341-0.222,0.526-0.337l0.352,0.809C19.988,6.122,19.697,6.39,19.412,6.661z"/>
	</g>
</g>
<g id="Layer_2">
	<path fill="#B5B49C" d="M17.86,7.951c0,1-0.81,1.812-1.812,1.812s-1.811-0.812-1.811-1.812c0-0.997,0.809-1.811,1.811-1.811
		S17.86,6.954,17.86,7.951z M24,12c0,6.627-5.373,12-12,12S0,18.627,0,12S5.373,0,12,0S24,5.373,24,12z M12.794,14.969
		c-1.62-0.619-2.928-1.861-3.631-3.436l-4.462,4.515v3.25h4.254V17.88h1.418v-1.417h0.953L12.794,14.969z M20.299,8.9
		c0-2.869-2.329-5.199-5.199-5.199c-2.871,0-5.198,2.33-5.198,5.199c0,2.873,2.327,5.199,5.198,5.199
		C17.97,14.1,20.299,11.772,20.299,8.9z"/>
</g>
</svg>
